<svg xmlns="http://www.w3.org/2000/svg" xmlns:xlink="http://www.w3.org/1999/xlink" width="308" height="107" viewBox="0 0 308 107">
  <defs>
    <clipPath id="clip-path">
      <rect id="Rectangle_116" data-name="Rectangle 116" width="308" height="107" transform="translate(1612 9591)" fill="#d9d9d9"/>
    </clipPath>
  </defs>
  <g id="Element" transform="translate(-1612 -9591)" opacity="0.5">
    <g id="Rectangle_116-2" data-name="Rectangle 116" clip-path="url(#clip-path)">
      <g id="Group_1000001431" data-name="Group 1000001431">
        <g id="Group">
          <g id="Group-2" data-name="Group">
            <path id="Vector" d="M.374-63.342c2.523,3.515,5.046,6.99,7.61,10.464C18.158-39.189,29.2-25.872,42.973-15.7,57.118-5.193,74.158.887,91.9-.105a72.741,72.741,0,0,0,26.676-6.741c8.354-3.97,15.675-9.719,22.623-15.716,6.99-6,13.69-12.366,21.3-17.577a76.142,76.142,0,0,1,24.98-11.084c18.28-4.508,37.388-3.35,56-3.019,17.743.331,35.444-.165,52.691-4.963,31.143-8.644,57.984-27.669,84-46.115,26.428-18.777,53.352-38.257,84.7-47.852,1.613-.455,2.151-2.936.5-3.764-1.406-.7-2.771-1.365-4.177-2.068-2.357-1.2-4.467,2.357-2.068,3.557,1.406.7,2.771,1.365,4.177,2.068.165-1.241.331-2.523.5-3.764-3.764,1.117-7.445,2.4-11.084,3.8-30.068,11.663-55.958,31.35-82.138,49.754-25.725,18.074-52.856,36.023-84.164,42.475-18.032,3.722-36.478,2.812-54.759,2.482-17.908-.331-36.437-.248-53.518,5.873a83.546,83.546,0,0,0-23,12.945c-7.114,5.542-13.648,11.787-20.6,17.536-7.279,5.956-15.1,11.208-24.029,14.31a68.994,68.994,0,0,1-27.172,3.64C47.15-6.805,23.369-38.362,3.972-65.41c-1.572-2.151-5.128-.083-3.6,2.068Z" transform="translate(2050.357 9619.819) rotate(180)" fill="#fff"/>
          </g>
        </g>
        <g id="Group-3" data-name="Group">
          <g id="Group-4" data-name="Group">
            <path id="Vector-2" data-name="Vector" d="M.082-49.259a139.765,139.765,0,0,0,12.325,12.9A138.7,138.7,0,0,0,147.029-6.247c24.236-7.61,44.46-21.8,62.286-39.621,18.57-18.57,35.444-39.084,58.6-52.236,50.457-28.62,110.758-23.285,166.344-20.266,55.834,3.061,111.337-.331,165.93-12.325a585.217,585.217,0,0,0,153.647-57.24c.289-.165.041-.62-.248-.455q-8.871,4.839-17.908,9.347a585.7,585.7,0,0,1-155.425,51.863A584.881,584.881,0,0,1,498-118c-28.744,1.117-57.323-.538-86.026-2.109-52.07-2.812-109.186-3.185-153.977,27.627C237.273-78.21,221.64-58.11,203.525-40.905c-19.066,18.115-41.689,31.226-67.456,37.1C86.232,7.526,33.293-10.589.413-49.632c-.207-.248-.579.124-.331.372Z" transform="translate(2051.969 9604) rotate(180)" fill="#fff"/>
          </g>
        </g>
      </g>
    </g>
  </g>
</svg>
