<svg xmlns="http://www.w3.org/2000/svg" xmlns:xlink="http://www.w3.org/1999/xlink" width="739" height="215" viewBox="0 0 739 215">
  <defs>
    <clipPath id="clip-path">
      <rect id="Rectangle_607" data-name="Rectangle 607" width="739" height="215" transform="translate(1920 3714) rotate(180)" fill="#d9d9d9"/>
    </clipPath>
  </defs>
  <g id="Element" transform="translate(-1181 -3499)">
    <g id="Rectangle_607-2" data-name="Rectangle 607" clip-path="url(#clip-path)">
      <g id="Group_1000001426" data-name="Group 1000001426">
        <g id="Group">
          <g id="Group-2" data-name="Group">
            <path id="Vector" d="M.629-106.505c4.242,5.911,8.484,11.752,12.8,17.594C30.532-65.893,49.1-43.5,72.256-26.394,96.039-8.731,124.69,1.492,154.523-.177a122.308,122.308,0,0,0,44.854-11.335c14.047-6.676,26.356-16.342,38.039-26.426,11.752-10.083,23.018-20.793,35.814-29.555a128.026,128.026,0,0,1,42-18.637c30.737-7.58,62.865-5.633,94.158-5.076,29.833.556,59.6-.278,88.6-8.345,52.364-14.534,97.5-46.523,141.237-77.538,44.437-31.572,89.708-64.325,142.42-80.459,2.712-.765,3.616-4.937.834-6.328-2.364-1.182-4.659-2.295-7.024-3.477-3.964-2.017-7.51,3.964-3.477,5.981,2.364,1.182,4.659,2.295,7.024,3.477.278-2.086.556-4.242.835-6.328-6.328,1.878-12.517,4.033-18.637,6.4-50.556,19.611-94.089,52.712-138.108,83.658-43.254,30.389-88.873,60.57-141.516,71.418-30.32,6.259-61.335,4.729-92.072,4.172-30.111-.556-61.265-.417-89.986,9.875a140.476,140.476,0,0,0-38.665,21.766C248.89-57.618,237.9-47.117,226.22-37.451c-12.239,10.014-25.382,18.846-40.4,24.061a116.008,116.008,0,0,1-45.688,6.12C79.28-11.443,39.294-64.5,6.679-109.982c-2.643-3.616-8.623-.139-6.05,3.477Z" transform="translate(2255.291 3513.6) rotate(180)" fill="#fff"/>
          </g>
        </g>
        <g id="Group-3" data-name="Group">
          <g id="Group-4" data-name="Group">
            <path id="Vector-2" data-name="Vector" d="M.138-82.826a235,235,0,0,0,20.723,21.7C81.571-5.427,168.636,14.184,247.217-10.5c40.751-12.8,74.756-36.648,104.729-66.62,31.224-31.224,59.6-65.716,98.539-87.83,84.84-48.122,186.23-39.151,279.693-34.075,93.88,5.146,187.2-.556,279-20.723A983.994,983.994,0,0,0,1267.52-316c.487-.278.07-1.043-.417-.765q-14.917,8.136-30.111,15.716a984.813,984.813,0,0,1-261.334,87.2A983.429,983.429,0,0,1,837.341-198.4c-48.331,1.878-96.384-.9-144.645-3.547-87.552-4.729-183.588-5.355-258.9,46.453-34.84,23.992-61.126,57.788-91.585,86.717-32.058,30.459-70.1,52.5-113.421,62.378C144.992,12.654,55.98-17.805.695-83.452c-.348-.417-.974.209-.556.626Z" transform="translate(2258 3487) rotate(180)" fill="#fff" stroke="#fff" stroke-width="1"/>
          </g>
        </g>
      </g>
    </g>
  </g>
</svg>
