<svg xmlns="http://www.w3.org/2000/svg" width="138" height="51.058" viewBox="0 0 138 51.058">
  <g id="Logo" transform="translate(-318 -30.08)">
    <g id="Txt">
      <text id="Agency_Service" data-name="Agency Service" transform="translate(370 70.138)" fill="#84848a" font-size="9" font-family="Inter-SemiBold, Inter" font-weight="600" letter-spacing="0.01em"><tspan x="0" y="9">Agency Service</tspan></text>
      <text id="Crito" transform="translate(370 30.08)" fill="#191919" font-size="36" font-family="DMSans-Bold, 'DM Sans \31 4pt'" font-weight="700" letter-spacing="-0.02em"><tspan x="0" y="36">Crito</tspan></text>
    </g>
    <g id="Icon">
      <g id="_9437f0ff" data-name="#9437f0ff">
        <path id="Vector" d="M0,1.358A14.261,14.261,0,0,1,8.833.318,7.778,7.778,0,0,1,13.69,3.985C12.928,4,12.165,4,11.4,4.01A6.726,6.726,0,0,0,7.733,1.415,15.606,15.606,0,0,0,.744,1.263,4.735,4.735,0,0,1,0,1.358Z" transform="translate(346.988 34)" fill="#9437f0"/>
      </g>
      <g id="_9435f3ff" data-name="#9435f3ff">
        <path id="Vector-2" data-name="Vector" d="M0,.033C.511.01,1.022-.011,1.535.006a9.222,9.222,0,0,1,.07,1.619C1.119,1.589.631,1.608.146,1.567.087,1.056.043.545,0,.033Z" transform="translate(338.533 35.562)" fill="#9435f3"/>
      </g>
      <g id="_8b39f7ff" data-name="#8b39f7ff">
        <path id="Vector-3" data-name="Vector" d="M0,0C.571.021,1.143.054,1.712.111A1.693,1.693,0,0,0,1.774,1.8c-.453-.044-.907-.079-1.36-.123L.07,1.619A9.223,9.223,0,0,0,0,0Z" transform="translate(340.067 35.568)" fill="#8b39f7"/>
      </g>
      <g id="_9f31efff" data-name="#9f31efff">
        <path id="Vector-4" data-name="Vector" d="M0,.146Q.8.045,1.6,0c.043.512.087,1.024.146,1.534.485.042.973.022,1.459.059l.344.059c-.364,0-.728,0-1.092,0a17.088,17.088,0,0,0-1.84.1l-.4.052C.151,1.253.076.7,0,.146Z" transform="translate(336.928 35.596)" fill="#9f31ef"/>
      </g>
      <g id="_a92ce9ff" data-name="#a92ce9ff">
        <path id="Vector-5" data-name="Vector" d="M0,.329C.607.193,1.221.084,1.837,0c.076.553.151,1.107.218,1.661-.48.066-.958.14-1.43.242A3.37,3.37,0,0,1,0,.329Z" transform="translate(335.092 35.742)" fill="#a92ce9"/>
      </g>
      <g id="_823efaff" data-name="#823efaff">
        <path id="Vector-6" data-name="Vector" d="M.257,1.69A1.693,1.693,0,0,1,.195,0C.722.062,1.249.136,1.771.234a10.6,10.6,0,0,0-.109,1.676c-.468-.077-.935-.16-1.406-.22Z" transform="translate(341.585 35.68)" fill="#823efa"/>
      </g>
      <g id="_7643feff" data-name="#7643feff">
        <path id="Vector-7" data-name="Vector" d="M.111,0a19.913,19.913,0,0,1,2.9.777A11.31,11.31,0,0,0,2.6,2.406c-.2-.067-.4-.132-.593-.2a17.487,17.487,0,0,0-2-.535A10.6,10.6,0,0,1,.111,0Z" transform="translate(343.246 35.913)" fill="#7643fe"/>
      </g>
      <g id="_b227e4ff" data-name="#b227e4ff">
        <path id="Vector-8" data-name="Vector" d="M.174.38A14.089,14.089,0,0,1,1.554,0a3.37,3.37,0,0,0,.625,1.574c-.162.034-.323.073-.483.112-.266.067-.531.139-.794.217A3.676,3.676,0,0,1,0,.6Z" transform="translate(333.537 36.071)" fill="#b227e4"/>
      </g>
      <g id="_bc22dfff" data-name="#bc22dfff">
        <path id="Vector-9" data-name="Vector" d="M0,.457A8.722,8.722,0,0,1,1.371,0a6.759,6.759,0,0,0,.742,1.507c-.505.16-1.012.32-1.508.5Q.32,1.227,0,.457Z" transform="translate(332.326 36.466)" fill="#bc22df"/>
      </g>
      <g id="_664affff" data-name="#664affff">
        <path id="Vector-10" data-name="Vector" d="M.417,0a20.634,20.634,0,0,1,3.27,1.486c-.275.488-.531.986-.78,1.487A18.53,18.53,0,0,0,.642,1.861C.428,1.78.215,1.7,0,1.629A11.31,11.31,0,0,1,.417,0Z" transform="translate(345.841 36.689)" fill="#664aff"/>
      </g>
      <g id="_c41ed9ff" data-name="#c41ed9ff">
        <path id="Vector-11" data-name="Vector" d="M0,.584C.449.378.9.18,1.361,0q.319.77.606,1.555c-.292.113-.579.236-.866.361-.132.059-.264.118-.394.18A4.454,4.454,0,0,1,0,.591Z" transform="translate(330.965 36.923)" fill="#c41ed9"/>
      </g>
      <g id="_e533f3ff" data-name="#e533f3ff">
        <path id="Vector-12" data-name="Vector" d="M0,.1A17.091,17.091,0,0,1,1.84,0a28.385,28.385,0,0,1,.153,2.984,37.238,37.238,0,0,1,.07,3.752l-.359,0a10.54,10.54,0,0,0-1.055.079l-.174.022c.318-.384.092-.881.041-1.316C.187,3.733.182,1.907,0,.1Z" transform="translate(337.551 37.25)" fill="#e533f3"/>
      </g>
      <g id="_d539f8ff" data-name="#d539f8ff">
        <path id="Vector-13" data-name="Vector" d="M0,0C.363,0,.727,0,1.092,0,1.545.044,2,.08,2.451.123a1.012,1.012,0,0,1,.2.64c-.026.768-.134,1.533-.167,2.3-.11,1.081-.033,2.169-.053,3.254a1.662,1.662,0,0,1-.143.6c-.258-.048-.519-.093-.781-.116A12,12,0,0,0,.223,6.74,37.235,37.235,0,0,0,.153,2.988,28.385,28.385,0,0,0,0,0Z" transform="translate(339.391 37.245)" fill="#d539f8"/>
      </g>
      <g id="_f12ceeff" data-name="#f12ceeff">
        <path id="Vector-14" data-name="Vector" d="M.483.295c.472-.1.951-.176,1.43-.242L2.317,0c.182,1.807.187,3.633.516,5.423.051.435.278.932-.041,1.316-.277.035-.552.079-.826.133-.2.041-.389.088-.581.137A11.78,11.78,0,0,0,.937,5.383,6.335,6.335,0,0,1,.7,3.865c-.052-.586-.32-1.124-.4-1.706S.136.985,0,.407C.16.367.32.329.483.295Z" transform="translate(335.234 37.35)" fill="#f12cee"/>
      </g>
      <g id="_c73ffbff" data-name="#c73ffbff">
        <path id="Vector-15" data-name="Vector" d="M.162,0C.633.06,1.1.143,1.568.22c-.026.675-.111,1.346-.109,2.021,0,.824-.173,1.638-.115,2.463A13.517,13.517,0,0,1,1.191,7.08C.86,6.98.523,6.9.186,6.832L0,6.8a1.662,1.662,0,0,0,.143-.6C.163,5.111.087,4.024.2,2.943.23,2.173.338,1.409.363.64A1.012,1.012,0,0,0,.162,0Z" transform="translate(341.68 37.368)" fill="#c73ffb"/>
      </g>
      <g id="_d217d0ff" data-name="#d217d0ff">
        <path id="Vector-16" data-name="Vector" d="M0,1.4A19.206,19.206,0,0,1,2.487,0a4.454,4.454,0,0,0,.7,1.5A20.368,20.368,0,0,0,.982,2.734l-.175.117C.548,2.362.276,1.881,0,1.4Z" transform="translate(328.481 37.515)" fill="#d217d0"/>
      </g>
      <g id="_b943fdff" data-name="#b943fdff">
        <path id="Vector-17" data-name="Vector" d="M.377,0a17.487,17.487,0,0,1,2,.535,8.739,8.739,0,0,1-.033,1.171c-.053.4-.218.77-.264,1.169-.115,1.547-.138,3.1-.335,4.642A10.94,10.94,0,0,0,.523,7.03Q.262,6.941,0,6.861A13.516,13.516,0,0,0,.153,4.485C.1,3.66.269,2.845.268,2.021.266,1.346.351.675.377,0Z" transform="translate(342.871 37.588)" fill="#b943fd"/>
      </g>
      <g id="_ff23e7ff" data-name="#ff23e7ff">
        <path id="Vector-18" data-name="Vector" d="M2.374.217C2.637.139,2.9.067,3.168,0c.136.578.218,1.165.307,1.753s.346,1.12.4,1.706A6.336,6.336,0,0,0,4.1,4.977,11.782,11.782,0,0,1,4.553,6.6c-.205.054-.408.117-.609.183q-.473.158-.934.351a5.324,5.324,0,0,1-.37-.838,17.04,17.04,0,0,0-.8-1.536C1.533,4.1,1.056,3.519.789,2.833c-.233-.6-.5-1.179-.789-1.75C.287.957.575.835.866.721c.5-.185,1-.345,1.508-.5Z" transform="translate(332.066 37.757)" fill="#ff23e7"/>
      </g>
      <g id="_8a40f1ff" data-name="#8a40f1ff">
        <path id="Vector-19" data-name="Vector" d="M0,.025C.763.015,1.525.013,2.288,0A10.142,10.142,0,0,1,3.374,2.919c-.769,0-1.537,0-2.306-.005A7.175,7.175,0,0,0,0,.025Z" transform="translate(358.389 37.985)" fill="#8a40f1"/>
      </g>
      <g id="_ac48ffff" data-name="#ac48ffff">
        <path id="Vector-20" data-name="Vector" d="M.632,0c.2.063.4.128.593.2.215.075.428.152.642.233a20.372,20.372,0,0,0-.245,2.347c-.189.992-.184,2.01-.414,3C1.1,6.342,1.039,6.921.947,7.5.706,7.352.458,7.217.209,7.087L0,6.981c.2-1.54.22-3.1.335-4.642.046-.4.21-.772.264-1.169A8.742,8.742,0,0,0,.632,0Z" transform="translate(344.616 38.123)" fill="#ac48ff"/>
      </g>
      <g id="_5750ffff" data-name="#5750ffff">
        <path id="Vector-21" data-name="Vector" d="M0,1.487C.249.986.505.488.78,0A20.819,20.819,0,0,1,2.991,1.46a11.039,11.039,0,0,0-.824,1.412l-.026.067A12.912,12.912,0,0,0,.454,1.746C.3,1.658.152,1.572,0,1.487Z" transform="translate(348.747 38.175)" fill="#5750ff"/>
      </g>
      <g id="_994dffff" data-name="#994dffff">
        <path id="Vector-22" data-name="Vector" d="M.92,0A18.53,18.53,0,0,1,3.184,1.111c.152.085.3.171.454.259a15.611,15.611,0,0,0-.151,1.7c-.031.908-.311,1.785-.361,2.692-.022.634-.392,1.185-.454,1.81a13.841,13.841,0,0,1-.207,1.452Q2.26,8.807,2.049,8.6A10.69,10.69,0,0,0,.587,7.45C.393,7.32.2,7.189,0,7.068c.092-.574.151-1.154.261-1.725.231-.986.225-2,.414-3A20.372,20.372,0,0,1,.92,0Z" transform="translate(345.563 38.553)" fill="#994dff"/>
      </g>
      <g id="_ff19e0ff" data-name="#ff19e0ff">
        <path id="Vector-23" data-name="Vector" d="M2.208.18C2.338.118,2.47.059,2.6,0c.289.571.556,1.154.789,1.75.267.686.743,1.263,1.052,1.93a17.037,17.037,0,0,1,.8,1.536,5.324,5.324,0,0,0,.37.838c-.1.044-.205.089-.307.136-.363.168-.718.356-1.064.557q-.2.118-.4.245c-.305-.519-.715-.965-1.022-1.482-.271-.456-.739-.764-.962-1.252A5.557,5.557,0,0,0,.825,2.394,3.339,3.339,0,0,1,0,1.41,20.366,20.366,0,0,1,2.208.18Z" transform="translate(329.463 38.838)" fill="#ff19e0"/>
      </g>
      <g id="_e20ec4ff" data-name="#e20ec4ff">
        <path id="Vector-24" data-name="Vector" d="M0,1.543A19.862,19.862,0,0,1,2.022,0c.276.48.548.962.806,1.452A20.215,20.215,0,0,0,1,2.865,10.72,10.72,0,0,1,0,1.543Z" transform="translate(326.46 38.913)" fill="#e20ec4"/>
      </g>
      <g id="_4a54ffff" data-name="#4a54ffff">
        <path id="Vector-25" data-name="Vector" d="M0,1.412A11.039,11.039,0,0,1,.824,0a19.812,19.812,0,0,1,2.9,2.68A4.3,4.3,0,0,0,2.666,4.008C2.478,3.8,2.287,3.6,2.1,3.4A26.7,26.7,0,0,0,0,1.412Z" transform="translate(350.914 39.635)" fill="#4a54ff"/>
      </g>
      <g id="_8452ffff" data-name="#8452ffff">
        <path id="Vector-26" data-name="Vector" d="M1.173,0A12.913,12.913,0,0,1,2.86,1.193c-.142.715-.109,1.453-.257,2.167a14.616,14.616,0,0,0-.222,1.459c-.063.66-.413,1.251-.466,1.913a22.576,22.576,0,0,1-.489,2.731c-.094-.15-.191-.3-.289-.444A11.9,11.9,0,0,0,0,7.653,13.841,13.841,0,0,0,.207,6.2c.062-.625.432-1.176.454-1.81.05-.907.33-1.783.361-2.692A15.61,15.61,0,0,1,1.173,0Z" transform="translate(348.029 39.923)" fill="#8452ff"/>
      </g>
      <g id="_ff0ed6ff" data-name="#ff0ed6ff">
        <path id="Vector-27" data-name="Vector" d="M2.889.117,3.064,0a3.339,3.339,0,0,0,.825.984A5.557,5.557,0,0,1,4.922,2.848c.223.488.691.8.962,1.252.308.518.717.964,1.022,1.482-.147.095-.292.2-.435.3-.308.221-.606.457-.894.7a9.879,9.879,0,0,0-.8.743c-.388-.562-1-.93-1.324-1.54-.193-.375-.643-.49-.885-.824-.34-.454-.89-.657-1.272-1.063A13.739,13.739,0,0,1,0,2.56c.352-.344.7-.693,1.06-1.03A20.215,20.215,0,0,1,2.889.117Z" transform="translate(326.399 40.248)" fill="#ff0ed6"/>
      </g>
      <g id="_f306b8ff" data-name="#f306b8ff">
        <path id="Vector-28" data-name="Vector" d="M0,1.976A17.376,17.376,0,0,1,1.989,0a10.72,10.72,0,0,0,1,1.321c-.359.337-.707.686-1.06,1.03-.276.274-.544.555-.795.851A5.861,5.861,0,0,0,0,1.976Z" transform="translate(324.471 40.459)" fill="#f306b8"/>
      </g>
      <g id="_8345f3ff" data-name="#8345f3ff">
        <path id="Vector-29" data-name="Vector" d="M0,0C.769.009,1.537,0,2.306.005A14.55,14.55,0,0,1,2.54,2.981c-.842.019-1.682,0-2.523,0A11.666,11.666,0,0,0,0,0Z" transform="translate(359.457 40.898)" fill="#8345f3"/>
      </g>
      <g id="_7155ffff" data-name="#7155ffff">
        <path id="Vector-30" data-name="Vector" d="M1.434.067,1.46,0a26.7,26.7,0,0,1,2.1,1.986C3.5,2.6,3.135,3.147,3.127,3.775,3.1,4.6,2.836,5.4,2.806,6.23c-.021.6-.4,1.12-.4,1.722-.022.55-.032,1.1-.084,1.647l-.357.02c-.222,0-.443.006-.664.005L.741,9.616C.477,9.2.252,8.76,0,8.337A22.576,22.576,0,0,0,.489,5.605c.052-.662.4-1.253.466-1.913a14.616,14.616,0,0,1,.222-1.459c.148-.714.115-1.452.257-2.167Z" transform="translate(349.454 41.049)" fill="#7155ff"/>
      </g>
      <g id="_3858ffff" data-name="#3858ffff">
        <path id="Vector-31" data-name="Vector" d="M0,1.328A4.3,4.3,0,0,1,1.056,0a20.481,20.481,0,0,1,2.6,3.677,7.246,7.246,0,0,0-1.241,1.29,13.809,13.809,0,0,0-1.2-2.049A15.8,15.8,0,0,0,0,1.328Z" transform="translate(353.581 42.316)" fill="#3858ff"/>
      </g>
      <g id="_ff03acff" data-name="#ff03acff">
        <path id="Vector-32" data-name="Vector" d="M1.446,0A5.861,5.861,0,0,1,2.58,1.226c-.34.413-.661.84-.983,1.266A2.054,2.054,0,0,0,0,1.849,19.506,19.506,0,0,1,1.446,0Z" transform="translate(323.025 42.434)" fill="#ff03ac"/>
      </g>
      <g id="_ff03c8ff" data-name="#ff03c8ff">
        <path id="Vector-33" data-name="Vector" d="M2.937.851c.251-.3.519-.576.795-.851a13.739,13.739,0,0,0,1.3,1.339c.382.406.932.609,1.272,1.063.242.334.692.449.885.824.322.611.937.978,1.324,1.54l-.073.078A11.507,11.507,0,0,0,7.1,6.553l-.108.186a17.081,17.081,0,0,0-1.954-.5,14.892,14.892,0,0,0-2.92-.586C1.408,5.664.708,5.528,0,5.576c.058-.131.119-.26.179-.389C.434,4.659.69,4.132.985,3.625a17.574,17.574,0,0,1,.97-1.508c.322-.426.643-.853.983-1.266Z" transform="translate(322.666 42.811)" fill="#ff03c8"/>
      </g>
      <g id="_5b58ffff" data-name="#5b58ffff">
        <path id="Vector-34" data-name="Vector" d="M1.239,0c.19.2.381.4.569.609A15.794,15.794,0,0,1,3.019,2.2c-.035.406-.042.813-.068,1.22-.026.558-.4,1.033-.412,1.6a10.332,10.332,0,0,1-.359,2.5c-.724.079-1.454.06-2.179.1.052-.548.062-1.1.084-1.647.009-.6.382-1.122.4-1.722.03-.828.293-1.627.322-2.455C.817,1.161,1.18.618,1.239,0Z" transform="translate(351.772 43.033)" fill="#5b58ff"/>
      </g>
      <g id="_7c4bf4ff" data-name="#7c4bf4ff">
        <path id="Vector-35" data-name="Vector" d="M.543,0c.841.007,1.681.023,2.523,0A17.925,17.925,0,0,1,2.8,2.665c-.9.006-1.9.046-2.8.012.04-.16.1-.3.128-.438C.3,1.5.422.75.543,0Z" transform="translate(358.933 43.876)" fill="#7c4bf4"/>
      </g>
      <g id="_9f32eaff" data-name="#9f32eaff">
        <path id="Vector-36" data-name="Vector" d="M0,.079A10.524,10.524,0,0,1,1.054,0a10.769,10.769,0,0,0,.22,1.662c-.322.006-.644.028-.964.061C.19,1.178.091.63,0,.079Z" transform="translate(338.2 43.989)" fill="#9f32ea"/>
      </g>
      <g id="_9436efff" data-name="#9436efff">
        <path id="Vector-37" data-name="Vector" d="M0,0,.359,0A12,12,0,0,1,1.644.063c-.13.032-.261.065-.389.1.029.514.06,1.03.067,1.545a10.876,10.876,0,0,0-1.1-.046A10.761,10.761,0,0,1,0,0Z" transform="translate(339.255 43.984)" fill="#9436ef"/>
      </g>
      <g id="_aa2ce4ff" data-name="#aa2ce4ff">
        <path id="Vector-38" data-name="Vector" d="M.009.156C.282.1.558.058.835.022L1.009,0c.091.551.19,1.1.311,1.644C.978,1.68.638,1.734.3,1.8A4.321,4.321,0,0,1,.009.156Z" transform="translate(337.191 44.066)" fill="#aa2ce4"/>
      </g>
      <g id="_893bf4ff" data-name="#893bf4ff">
        <path id="Vector-39" data-name="Vector" d="M0,.1C.128.065.258.032.389,0,.65.023.911.068,1.17.116l.186.036q-.09.833-.169,1.665C.816,1.743.442,1.684.067,1.647.06,1.131.029.616,0,.1Z" transform="translate(340.51 44.05)" fill="#893bf4"/>
      </g>
      <g id="_b527deff" data-name="#b527deff">
        <path id="Vector-40" data-name="Vector" d="M.609.137C.8.088.994.041,1.19,0a4.321,4.321,0,0,0,.294,1.648q-.5.107-.981.261A5.39,5.39,0,0,1,0,.319C.2.254.4.191.609.137Z" transform="translate(336.01 44.223)" fill="#b527de"/>
      </g>
      <g id="_7c41f8ff" data-name="#7c41f8ff">
        <path id="Vector-41" data-name="Vector" d="M.169,0C.506.069.843.148,1.174.249q.263.08.523.17a13.5,13.5,0,0,1-.378,1.627A10.513,10.513,0,0,0,0,1.665Q.08.832.169,0Z" transform="translate(341.697 44.199)" fill="#7c41f8"/>
      </g>
      <g id="_ff01a2ff" data-name="#ff01a2ff">
        <path id="Vector-42" data-name="Vector" d="M.935,0a2.054,2.054,0,0,1,1.6.644,17.571,17.571,0,0,0-.97,1.508,2.894,2.894,0,0,0-.7-.542A3.327,3.327,0,0,0,0,1.494C.289.983.6.486.935,0Z" transform="translate(322.09 44.283)" fill="#ff01a2"/>
      </g>
      <g id="_c121d7ff" data-name="#c121d7ff">
        <path id="Vector-43" data-name="Vector" d="M.307.351C.613.222.925.106,1.24,0a5.39,5.39,0,0,0,.5,1.59,10.482,10.482,0,0,0-1.059.418C.477,1.492.252.983,0,.487.1.44.2.395.307.351Z" transform="translate(334.769 44.541)" fill="#c121d7"/>
      </g>
      <g id="_7046fcff" data-name="#7046fcff">
        <path id="Vector-44" data-name="Vector" d="M.378,0A10.942,10.942,0,0,1,1.6.486l.209.106a9.446,9.446,0,0,0-.568,1.583A10.118,10.118,0,0,0,0,1.627,13.5,13.5,0,0,0,.378,0Z" transform="translate(343.015 44.618)" fill="#7046fc"/>
      </g>
      <g id="_cc1bcfff" data-name="#cc1bcfff">
        <path id="Vector-45" data-name="Vector" d="M0,.557C.346.356.7.168,1.064,0c.252.5.477,1.005.685,1.522-.289.131-.575.273-.85.432A12.191,12.191,0,0,1,0,.557Z" transform="translate(333.706 45.026)" fill="#cc1bcf"/>
      </g>
      <g id="_644bffff" data-name="#644bffff">
        <path id="Vector-46" data-name="Vector" d="M0,1.583A9.445,9.445,0,0,1,.568,0c.249.13.5.265.738.409.2.122.393.252.587.382C1.663,1.3,1.43,1.817,1.2,2.331A10.273,10.273,0,0,0,0,1.583Z" transform="translate(344.257 45.212)" fill="#644bff"/>
      </g>
      <g id="_485bffff" data-name="#485bffff">
        <path id="Vector-47" data-name="Vector" d="M3.375,0a13.809,13.809,0,0,1,1.2,2.049c.374.578,0,1.21-.015,1.824a6.387,6.387,0,0,1-.177,1.473c-.767.1-1.541.084-2.311.131A13.081,13.081,0,0,1,0,5.433l.357-.02c.725-.038,1.455-.019,2.179-.1a10.332,10.332,0,0,0,.359-2.5c.017-.562.387-1.037.412-1.6C3.334.813,3.34.406,3.375,0Z" transform="translate(351.416 45.234)" fill="#485bff"/>
      </g>
      <g id="_d717c7ff" data-name="#d717c7ff">
        <path id="Vector-48" data-name="Vector" d="M.435.245Q.632.119.835,0a12.191,12.191,0,0,0,.9,1.4c-.293.172-.578.354-.853.552C.6,1.473.307,1,0,.544c.143-.1.287-.2.435-.3Z" transform="translate(332.871 45.585)" fill="#d717c7"/>
      </g>
      <g id="_ff0098ff" data-name="#ff0098ff">
        <path id="Vector-49" data-name="Vector" d="M0,1.7Q.393.83.858,0a3.327,3.327,0,0,1,.865.115,2.894,2.894,0,0,1,.7.542c-.295.507-.551,1.034-.805,1.563A4.173,4.173,0,0,0,0,1.7Z" transform="translate(321.232 45.777)" fill="#ff0098"/>
      </g>
      <g id="_594fffff" data-name="#594fffff">
        <path id="Vector-50" data-name="Vector" d="M.691,0A10.69,10.69,0,0,1,2.152,1.151c-.294.5-.581,1-.873,1.493A9.543,9.543,0,0,0,0,1.54C.228,1.026.46.513.691,0Z" transform="translate(345.46 46)" fill="#594fff"/>
      </g>
      <g id="_2e5cffff" data-name="#2e5cffff">
        <path id="Vector-51" data-name="Vector" d="M2.91,1.29A7.245,7.245,0,0,1,4.151,0a14.057,14.057,0,0,1,1.1,2.453c-.052.152-.11.3-.168.453A29.85,29.85,0,0,1,3.516,6.343c-1.173,0-2.345,0-3.516,0A3.464,3.464,0,0,0,.406,4.719c.77-.047,1.545-.033,2.311-.131a6.387,6.387,0,0,0,.177-1.473c.012-.614.389-1.246.015-1.824Z" transform="translate(353.085 45.991)" fill="#2e5cff"/>
      </g>
      <g id="_e010bfff" data-name="#e010bfff">
        <path id="Vector-52" data-name="Vector" d="M0,.7C.288.457.586.221.894,0c.307.46.6.929.88,1.4q-.388.28-.748.594C.668,1.581.331,1.144,0,.7Z" transform="translate(331.977 46.131)" fill="#e010bf"/>
      </g>
      <g id="_764ff5ff" data-name="#764ff5ff">
        <path id="Vector-53" data-name="Vector" d="M.762.019.863,0c.9.034,1.8.014,2.7.007C3.414.8,3.236,1.589,3.023,2.368c-1.007.018-2.016.019-3.023,0,.058-.15.115-.3.168-.453C.383,1.291.6.66.762.019Z" transform="translate(358.17 46.533)" fill="#764ff5"/>
      </g>
      <g id="_ea0cb6ff" data-name="#ea0cb6ff">
        <path id="Vector-54" data-name="Vector" d="M.073.743A9.879,9.879,0,0,1,.868,0c.331.441.668.877,1.026,1.3-.285.256-.555.527-.818.806C.726,1.667.349,1.255,0,.821Z" transform="translate(331.109 46.831)" fill="#ea0cb6"/>
      </g>
      <g id="_4d53ffff" data-name="#4d53ffff">
        <path id="Vector-55" data-name="Vector" d="M0,1.493C.292,1,.579.5.873,0q.211.207.417.423A11.9,11.9,0,0,1,2.426,1.789a5.332,5.332,0,0,0-.965,1.585A10.014,10.014,0,0,0,0,1.493Z" transform="translate(346.74 47.149)" fill="#4d53ff"/>
      </g>
      <g id="_ff008eff" data-name="#ff008eff">
        <path id="Vector-56" data-name="Vector" d="M.722,0A4.173,4.173,0,0,1,2.336.522C2.275.65,2.214.779,2.157.91c-.2.437-.364.887-.521,1.339A3.971,3.971,0,0,0,0,1.86C.213,1.23.456.611.722,0Z" transform="translate(320.511 47.475)" fill="#ff008e"/>
      </g>
      <g id="_f806aaff" data-name="#f806aaff">
        <path id="Vector-57" data-name="Vector" d="M0,1.709A11.506,11.506,0,0,1,1.345,0c.349.434.726.846,1.077,1.281A9.844,9.844,0,0,0,1.37,2.661,7.918,7.918,0,0,0,0,1.709Z" transform="translate(329.763 47.653)" fill="#f806aa"/>
      </g>
      <g id="_ff00b9ff" data-name="#ff00b9ff">
        <path id="Vector-58" data-name="Vector" d="M1.4.01C2.106-.038,2.806.1,3.513.085a14.892,14.892,0,0,1,2.92.586,17.08,17.08,0,0,1,1.954.5A12.172,12.172,0,0,0,7.2,3.7c-.048.152-.093.3-.134.457a6.28,6.28,0,0,0-1.944-.047c-.511.031-1,.232-1.515.218a4.957,4.957,0,0,0-1.587.3C1.331,4.82.7,5.2,0,5.363A20.613,20.613,0,0,1,.347,3.272,16.559,16.559,0,0,1,.877,1.35C1.034.9,1.2.447,1.4.01Z" transform="translate(321.269 48.373)" fill="#ff00b9"/>
      </g>
      <g id="_6c55f6ff" data-name="#6c55f6ff">
        <path id="Vector-59" data-name="Vector" d="M1.83,0C2.837.022,3.845.021,4.853,0a29.743,29.743,0,0,1-1.436,3.97H3.4c-1.133-.029-2.268.019-3.4-.049l.261-.487A29.849,29.849,0,0,0,1.83,0Z" transform="translate(356.341 48.898)" fill="#6c55f6"/>
      </g>
      <g id="_4056ffff" data-name="#4056ffff">
        <path id="Vector-60" data-name="Vector" d="M0,1.585A5.332,5.332,0,0,1,.965,0c.1.146.2.294.289.444.252.424.477.863.741,1.28l.555.007a10.365,10.365,0,0,0-1,1.666q-.362,0-.721-.013A8.9,8.9,0,0,0,0,1.585Z" transform="translate(348.201 48.94)" fill="#4056ff"/>
      </g>
      <g id="_ff0084ff" data-name="#ff0084ff">
        <path id="Vector-61" data-name="Vector" d="M.5,0A3.972,3.972,0,0,1,2.137.39a16.559,16.559,0,0,0-.53,1.922C1.274,1.777.535,1.908,0,1.787.139,1.184.309.588.5,0Z" transform="translate(320.008 49.335)" fill="#ff0084"/>
      </g>
      <g id="_ff0395ff" data-name="#ff0395ff">
        <path id="Vector-62" data-name="Vector" d="M1.185.186,1.292,0a7.918,7.918,0,0,1,1.37.952,10.456,10.456,0,0,0-1.082,2.32A9.539,9.539,0,0,0,0,2.71,12.172,12.172,0,0,1,1.185.186Z" transform="translate(328.472 49.363)" fill="#ff0395"/>
      </g>
      <g id="_375affff" data-name="#375affff">
        <path id="Vector-63" data-name="Vector" d="M1,.005c.221,0,.442,0,.664-.005A13.082,13.082,0,0,0,3.738.045a3.464,3.464,0,0,1-.406,1.628c-1.111,0-2.222,0-3.333,0A10.365,10.365,0,0,1,1,.005Z" transform="translate(349.753 50.667)" fill="#375aff"/>
      </g>
      <g id="_ff0079ff" data-name="#ff0079ff">
        <path id="Vector-64" data-name="Vector" d="M.406,0C.941.122,1.68-.01,2.013.525a20.613,20.613,0,0,0-.347,2.091c0,.022-.009.067-.011.09C1.1,2.621.552,2.55,0,2.479A20.467,20.467,0,0,1,.406,0Z" transform="translate(319.603 51.122)" fill="#ff0079"/>
      </g>
      <g id="_ff0283ff" data-name="#ff0283ff">
        <path id="Vector-65" data-name="Vector" d="M.343,0A9.538,9.538,0,0,1,1.924.562,10.09,10.09,0,0,0,1.6,1.887C1.069,1.729.534,1.575,0,1.413.06,1.092.127.773.209.457.25.3.295.152.343,0Z" transform="translate(328.128 52.072)" fill="#ff0283"/>
      </g>
      <g id="_ff00a9ff" data-name="#ff00a9ff">
        <path id="Vector-66" data-name="Vector" d="M5.226.053A6.28,6.28,0,0,1,7.17.1c-.082.316-.15.635-.209.956-.073.415-.14.832-.189,1.252-.054.395-.11.789-.15,1.186-.6.346-1.273.525-1.86.891-.489.3-1.017.53-1.5.849-.534.35-1.2.517-1.6,1.052A3.977,3.977,0,0,1,.47,7.353C.348,6.787.235,6.22.163,5.647A19.605,19.605,0,0,1,0,3.41,19.451,19.451,0,0,1,.091,1.4c0-.022.007-.067.011-.09.7-.163,1.331-.543,2.023-.741a4.957,4.957,0,0,1,1.587-.3c.517.014,1-.187,1.515-.218Z" transform="translate(321.167 52.43)" fill="#ff00a9"/>
      </g>
      <g id="_615df7ff" data-name="#615df7ff">
        <path id="Vector-67" data-name="Vector" d="M0,3.191C.692,2.156,1.345,1.093,1.941,0c1.132.068,2.267.02,3.4.049a33.35,33.35,0,0,1-1.61,3.224C2.489,3.2,1.242,3.3,0,3.191Z" transform="translate(354.4 52.821)" fill="#615df7"/>
      </g>
      <g id="_ff0275ff" data-name="#ff0275ff">
        <path id="Vector-68" data-name="Vector" d="M.2,0C.731.162,1.266.316,1.8.474A10.86,10.86,0,0,0,1.659,2.03,14.122,14.122,0,0,0,0,1.929c0-.226,0-.451.007-.677C.057.832.124.415.2,0Z" transform="translate(327.932 53.486)" fill="#ff0275"/>
      </g>
      <g id="_ff006dff" data-name="#ff006dff">
        <path id="Vector-69" data-name="Vector" d="M0,2.158A16.918,16.918,0,0,1,.088,0c.552.07,1.1.142,1.656.226a19.451,19.451,0,0,0-.091,2.012A9.36,9.36,0,0,1,0,2.158Z" transform="translate(319.514 53.601)" fill="#ff006d"/>
      </g>
      <g id="_ff059aff" data-name="#ff059aff">
        <path id="Vector-70" data-name="Vector" d="M6.152,1.186c.04-.4.1-.791.15-1.186-.009.225-.007.45-.007.677A12.716,12.716,0,0,0,6.471,3.1c.031.149.065.3.1.447A8.5,8.5,0,0,0,4.516,4.944,10.672,10.672,0,0,1,2.425,6.5,6.708,6.708,0,0,0,.883,7.863c-.032-.082-.1-.245-.126-.328A18.892,18.892,0,0,1,.123,5.575C.079,5.4.038,5.22,0,5.044A3.977,3.977,0,0,0,1.2,3.978c.4-.536,1.066-.7,1.6-1.052.479-.318,1.006-.548,1.5-.849.586-.366,1.263-.545,1.86-.891Z" transform="translate(321.637 54.738)" fill="#ff059a"/>
      </g>
      <g id="_ff0566ff" data-name="#ff0566ff">
        <path id="Vector-71" data-name="Vector" d="M0,0A14.124,14.124,0,0,1,1.66.1a10.555,10.555,0,0,0,.12,1.7c-.531.186-1.258.1-1.6.622A12.715,12.715,0,0,1,0,0Z" transform="translate(327.93 55.413)" fill="#ff0566"/>
      </g>
      <g id="_ff0062ff" data-name="#ff0062ff">
        <path id="Vector-72" data-name="Vector" d="M0,0A9.361,9.361,0,0,0,1.653.08a19.605,19.605,0,0,0,.163,2.237q-.844-.008-1.69.005A16.549,16.549,0,0,1,0,0Z" transform="translate(319.513 55.758)" fill="#ff0062"/>
      </g>
      <g id="_5564f9ff" data-name="#5564f9ff">
        <path id="Vector-73" data-name="Vector" d="M1.25,2.951C2,1.994,2.723,1.014,3.4,0,4.638.111,5.884,0,7.127.082a49.729,49.729,0,0,1-2.9,4.466C2.82,4.453,1.409,4.531,0,4.5c.421-.511.847-1.019,1.25-1.545Z" transform="translate(351.005 56.014)" fill="#5564f9"/>
      </g>
      <g id="_ff0c58ff" data-name="#ff0c58ff">
        <path id="Vector-74" data-name="Vector" d="M0,.622C.344.1,1.071.186,1.6,0a10.013,10.013,0,0,0,.313,1.367,6.187,6.187,0,0,0-1.474.846C.317,1.836.2,1.456.1,1.069.065.921.031.772,0,.622Z" transform="translate(328.108 57.216)" fill="#ff0c58"/>
      </g>
      <g id="_ff0158ff" data-name="#ff0158ff">
        <path id="Vector-75" data-name="Vector" d="M0,.008Q.844,0,1.69,0c.072.573.185,1.14.307,1.706.038.176.079.354.123.53l-1.671.21A20.525,20.525,0,0,1,0,.008Z" transform="translate(319.641 58.073)" fill="#ff0158"/>
      </g>
      <g id="_ff158fff" data-name="#ff158fff">
        <path id="Vector-76" data-name="Vector" d="M5.689,0c.1.386.216.766.34,1.144a10.736,10.736,0,0,0,.436,1.116c.064.136.131.271.2.406-.849.879-1.739,1.718-2.54,2.642A12.153,12.153,0,0,0,2.838,6.694,7.827,7.827,0,0,1,1.9,7.833c-.207-.306-.411-.615-.6-.931C1.032,6.453.775,6,.543,5.525c-.194-.4-.38-.8-.543-1.211A6.708,6.708,0,0,1,1.541,2.949,10.672,10.672,0,0,0,3.633,1.395,8.5,8.5,0,0,1,5.689,0Z" transform="translate(322.52 58.285)" fill="#ff158f"/>
      </g>
      <g id="_ff164dff" data-name="#ff164dff">
        <path id="Vector-77" data-name="Vector" d="M0,.846A6.187,6.187,0,0,1,1.474,0a9.628,9.628,0,0,0,.454,1.189c-.493.265-1,.509-1.492.774A10.737,10.737,0,0,1,0,.846Z" transform="translate(328.549 58.585)" fill="#ff164d"/>
      </g>
      <g id="_ffd200ff" data-name="#ffd200ff">
        <path id="Vector-78" data-name="Vector" d="M2.086.392C2.159.242,2.2,0,2.418.007,3.427-.009,4.436.015,5.444,0c-.4.526-.829,1.034-1.25,1.545C3.7,2.126,3.2,2.693,2.686,3.252c-.555.623-1.151,1.208-1.736,1.8A15.29,15.29,0,0,0,0,3.636,9.977,9.977,0,0,0,2.086.392Z" transform="translate(346.809 58.963)" fill="#ffd200"/>
      </g>
      <g id="_ffda00ff" data-name="#ffda00ff">
        <path id="Vector-79" data-name="Vector" d="M5.937,0a4.085,4.085,0,0,1,1.136.07A19.385,19.385,0,0,1,5.426,5.256a19.7,19.7,0,0,1-3.5,5.183A8.127,8.127,0,0,0,0,7.52,52.265,52.265,0,0,0,5.937,0Z" transform="translate(352.364 58.961)" fill="#ffda00"/>
      </g>
      <g id="_ff2044ff" data-name="#ff2044ff">
        <path id="Vector-80" data-name="Vector" d="M1.492,0a10.027,10.027,0,0,0,.534,1.025c-.45.33-.911.643-1.379.946C.49,1.711.341,1.447.2,1.179.131,1.045.064.909,0,.774.493.509,1,.265,1.492,0Z" transform="translate(328.985 59.771)" fill="#ff2044"/>
      </g>
      <g id="_ff054dff" data-name="#ff054dff">
        <path id="Vector-81" data-name="Vector" d="M0,.21,1.671,0a18.889,18.889,0,0,0,.634,1.961c-.521.2-1.023.444-1.536.665A20.742,20.742,0,0,1,0,.21Z" transform="translate(320.089 60.313)" fill="#ff054d"/>
      </g>
      <g id="_4869faff" data-name="#4869faff">
        <path id="Vector-82" data-name="Vector" d="M0,1.707C.514,1.147,1.018.581,1.508,0c1.409.034,2.82-.044,4.227.051Q5.081.932,4.4,1.789l-.019,0C2.921,1.664,1.458,1.8,0,1.707Z" transform="translate(349.497 60.511)" fill="#4869fa"/>
      </g>
      <g id="_ff2a3bff" data-name="#ff2a3bff">
        <path id="Vector-83" data-name="Vector" d="M0,.946C.468.643.929.33,1.379,0a10.146,10.146,0,0,0,.655.961A8.773,8.773,0,0,0,.881,2.2L.838,2.143A11.465,11.465,0,0,1,0,.946Z" transform="translate(329.632 60.798)" fill="#ff2a3b"/>
      </g>
      <g id="_ff2882ff" data-name="#ff2882ff">
        <path id="Vector-84" data-name="Vector" d="M4.761,0c.14.268.289.532.446.791a11.465,11.465,0,0,0,.838,1.2c-.688.9-1.512,1.69-2.263,2.539a7.29,7.29,0,0,1-.9,1.238,6.246,6.246,0,0,0-1.286,1.4L1.443,7C1.054,6.561.678,6.111.33,5.641.217,5.485.108,5.326,0,5.167A7.826,7.826,0,0,0,.934,4.028,12.153,12.153,0,0,1,2.221,2.642C3.022,1.718,3.911.879,4.761,0Z" transform="translate(324.425 60.951)" fill="#ff2882"/>
      </g>
      <g id="_ff3633ff" data-name="#ff3633ff">
        <path id="Vector-85" data-name="Vector" d="M0,1.236A8.773,8.773,0,0,1,1.153,0,11.5,11.5,0,0,0,2,.973c-.38.4-.8.773-1.2,1.152A11.073,11.073,0,0,1,0,1.236Z" transform="translate(330.513 61.759)" fill="#ff3633"/>
      </g>
      <g id="_ff0e44ff" data-name="#ff0e44ff">
        <path id="Vector-86" data-name="Vector" d="M0,.665C.513.444,1.015.2,1.536,0c.031.082.094.245.126.328.162.411.348.813.543,1.211a14.8,14.8,0,0,1-1.4.935C.512,1.884.24,1.281,0,.665Z" transform="translate(320.859 62.272)" fill="#ff0e44"/>
      </g>
      <g id="_406dfbff" data-name="#406dfbff">
        <path id="Vector-87" data-name="Vector" d="M.323,1.8C.907,1.208,1.5.623,2.058,0,3.516.1,4.98-.043,6.437.08c-.571.743-1.2,1.445-1.821,2.143H4.6c-1.532-.107-3.071.052-4.6-.1L.323,1.8Z" transform="translate(347.438 62.217)" fill="#406dfb"/>
      </g>
      <g id="_ffc200ff" data-name="#ffc200ff">
        <path id="Vector-88" data-name="Vector" d="M0,1.3A10.425,10.425,0,0,0,1.53,0,15.289,15.289,0,0,1,2.48,1.42l-.323.321C1.72,2.168,1.286,2.6.825,3,.55,2.435.307,1.85,0,1.3Z" transform="translate(345.281 62.6)" fill="#ffc200"/>
      </g>
      <g id="_ff4924ff" data-name="#ff4924ff">
        <path id="Vector-89" data-name="Vector" d="M0,1.152C.4.773.821.4,1.2,0A10.425,10.425,0,0,0,3.254,1.575,4.108,4.108,0,0,0,2.381,3l-.139-.081a11.426,11.426,0,0,1-1.266-.9q-.458-.376-.89-.786Z" transform="translate(331.314 62.729)" fill="#ff4924"/>
      </g>
      <g id="_ff3679ff" data-name="#ff3679ff">
        <path id="Vector-90" data-name="Vector" d="M4.454,0,4.5.053a11.073,11.073,0,0,0,.8.889l.087.084C5,1.561,4.5,2.005,4.117,2.544,3.743,3.059,3.4,3.594,3,4.088a13.709,13.709,0,0,1-1.772,2.3c-.052-.049-.157-.148-.21-.2C.667,5.863.324,5.528,0,5.174a6.246,6.246,0,0,1,1.286-1.4,7.291,7.291,0,0,0,.9-1.238C2.942,1.69,3.766.9,4.454,0Z" transform="translate(326.016 62.94)" fill="#ff3679"/>
      </g>
      <g id="_ff173eff" data-name="#ff173eff">
        <path id="Vector-91" data-name="Vector" d="M0,.935A14.794,14.794,0,0,0,1.4,0c.233.47.489.927.759,1.377A8.478,8.478,0,0,1,.819,2.4C.531,1.917.252,1.432,0,.935Z" transform="translate(321.667 63.811)" fill="#ff173e"/>
      </g>
      <g id="_ff4271ff" data-name="#ff4271ff">
        <path id="Vector-92" data-name="Vector" d="M4.159,0q.431.408.89.786a14.428,14.428,0,0,0-1.538,2.2,4.477,4.477,0,0,0-.437.989,15.131,15.131,0,0,1-.911,1.511c-.2.383-.36.784-.556,1.169q-.282-.2-.556-.414C.69,5.961.335,5.672,0,5.363a13.709,13.709,0,0,0,1.772-2.3c.4-.494.747-1.029,1.12-1.543C3.274.979,3.772.535,4.159,0Z" transform="translate(327.24 63.969)" fill="#ff4271"/>
      </g>
      <g id="_ffb400ff" data-name="#ffb400ff">
        <path id="Vector-93" data-name="Vector" d="M0,1.343A10.277,10.277,0,0,0,2.785,0c.307.554.55,1.139.825,1.709-.591.545-1.2,1.071-1.816,1.587q-.093-.325-.183-.648c-.43.126-.86.255-1.292.371A13.727,13.727,0,0,0,0,1.343Z" transform="translate(342.496 63.896)" fill="#ffb400"/>
      </g>
      <g id="_3073fdff" data-name="#3073fdff">
        <path id="Vector-94" data-name="Vector" d="M0,2.63A15.171,15.171,0,0,1,.763,0C.68.872.569,1.741.536,2.617.356,2.621.178,2.624,0,2.63Z" transform="translate(318.271 64.005)" fill="#3073fd"/>
        <path id="Vector-95" data-name="Vector" d="M2.489,1.264C2.95.86,3.384.427,3.822,0c1.528.149,3.068-.01,4.6.1-.154.176-.3.355-.466.524-.8.811-1.6,1.613-2.4,2.415-.173.172-.358.329-.542.487C3.342,3.4,1.665,3.574,0,3.414c.224-.188.451-.374.673-.564C1.289,2.334,1.9,1.809,2.489,1.264Z" transform="translate(343.617 64.343)" fill="#3073fd"/>
      </g>
      <g id="_ff5c16ff" data-name="#ff5c16ff">
        <path id="Vector-96" data-name="Vector" d="M0,1.428A4.108,4.108,0,0,1,.873,0c.225.129.454.252.688.365C1.348.879,1.124,1.389.883,1.89c-.3-.144-.594-.3-.883-.462Z" transform="translate(333.693 64.305)" fill="#ff5c16"/>
      </g>
      <g id="_ff660cff" data-name="#ff660cff">
        <path id="Vector-97" data-name="Vector" d="M.677,0c.309.148.625.281.946.4A12.584,12.584,0,0,0,.972,1.93c-.254-.095-.506-.2-.753-.3L0,1.525C.24,1.024.465.514.677,0Z" transform="translate(334.578 64.672)" fill="#ff660c"/>
      </g>
      <g id="_ff4f69ff" data-name="#ff4f69ff">
        <path id="Vector-98" data-name="Vector" d="M3.443,0A11.425,11.425,0,0,0,4.708.9c-.538,1-1.133,1.975-1.617,3.006A10.085,10.085,0,0,1,2.632,5.07a20.409,20.409,0,0,1-.953,1.872C1.312,6.724.942,6.508.585,6.276.387,6.144.192,6.008,0,5.87.2,5.486.358,5.085.557,4.7A15.127,15.127,0,0,0,1.468,3.19,4.478,4.478,0,0,1,1.9,2.2,14.429,14.429,0,0,1,3.443,0Z" transform="translate(328.847 64.752)" fill="#ff4f69"/>
      </g>
      <g id="_ff7200ff" data-name="#ff7200ff">
        <path id="Vector-99" data-name="Vector" d="M.652,0a9.657,9.657,0,0,0,1.17.343C1.7.886,1.584,1.43,1.48,1.977l-.174-.039A12.424,12.424,0,0,1,0,1.528,12.584,12.584,0,0,1,.652,0Z" transform="translate(335.55 65.072)" fill="#ff7200"/>
      </g>
      <g id="_ff2037ff" data-name="#ff2037ff">
        <path id="Vector-100" data-name="Vector" d="M0,1.018A8.478,8.478,0,0,0,1.336,0c.191.316.4.624.6.931.108.159.217.318.33.474-.425.359-.842.728-1.244,1.112C.665,2.03.322,1.531,0,1.018Z" transform="translate(322.486 65.187)" fill="#ff2037"/>
      </g>
      <g id="_ffa300ff" data-name="#ffa300ff">
        <path id="Vector-101" data-name="Vector" d="M0,.3A10.28,10.28,0,0,0,1.306,0a13.727,13.727,0,0,1,.318,1.677c-.295.077-.589.161-.885.229-.2.041-.408.073-.613.1A13.617,13.617,0,0,1,0,.3Z" transform="translate(341.189 65.239)" fill="#ffa300"/>
      </g>
      <g id="_ff7f00ff" data-name="#ff7f00ff">
        <path id="Vector-102" data-name="Vector" d="M.341,0A11.014,11.014,0,0,0,1.605.2c-.1.552-.176,1.106-.23,1.664C.913,1.814.455,1.73,0,1.634.1,1.088.221.543.341,0Z" transform="translate(337.03 65.415)" fill="#ff7f00"/>
      </g>
      <g id="_ff9700ff" data-name="#ff9700ff">
        <path id="Vector-103" data-name="Vector" d="M.151.12A10.141,10.141,0,0,0,1.4,0a13.617,13.617,0,0,0,.126,1.707C1.016,1.762.508,1.819,0,1.83.047,1.26.1.689.151.12Z" transform="translate(339.794 65.535)" fill="#ff9700"/>
      </g>
      <g id="_ff5d60ff" data-name="#ff5d60ff">
        <path id="Vector-104" data-name="Vector" d="M3.029,0l.139.081c.289.162.583.318.883.462l.219.1a15.167,15.167,0,0,0-.8,1.989,17.868,17.868,0,0,1-.752,1.686A11.782,11.782,0,0,1,1.694,6.88a14.129,14.129,0,0,1-1.46-.7L0,6.041A20.406,20.406,0,0,0,.953,4.169a10.083,10.083,0,0,0,.459-1.163C1.9,1.975,2.491,1,3.029,0Z" transform="translate(330.527 65.654)" fill="#ff5d60"/>
      </g>
      <g id="_ff8c00ff" data-name="#ff8c00ff">
        <path id="Vector-105" data-name="Vector" d="M.23,0A11.64,11.64,0,0,0,1.538.038c-.052.57-.1,1.141-.151,1.711-.146,0-.292,0-.437-.005C.632,1.729.315,1.7,0,1.664.053,1.106.135.552.23,0Z" transform="translate(338.406 65.617)" fill="#ff8c00"/>
      </g>
      <g id="_ff6e54ff" data-name="#ff6e54ff">
        <path id="Vector-106" data-name="Vector" d="M2.6,0c.247.109.5.209.753.3A12.425,12.425,0,0,0,4.657.713a4.624,4.624,0,0,0-.35,1.316,8.3,8.3,0,0,1-.642,2.343,5.738,5.738,0,0,0-.2,1.317c-.058.37-.143.736-.207,1.106-.4.2-.806.4-1.222.573.132-.084.263-.174.394-.263A24.81,24.81,0,0,1,0,6.264l.021-.028a11.782,11.782,0,0,0,1.025-2.56A17.864,17.864,0,0,0,1.8,1.989,15.167,15.167,0,0,1,2.6,0Z" transform="translate(332.199 66.297)" fill="#ff6e54"/>
      </g>
      <g id="_ffa91eff" data-name="#ffa91eff">
        <path id="Vector-107" data-name="Vector" d="M.985.371C1.418.255,1.847.126,2.278,0q.09.323.183.648c-.222.19-.449.376-.673.564C1.3,1.618.8,2,.3,2.386-.206,1.909.077,1.194.1.6.4.533.691.448.985.371Z" transform="translate(341.829 66.543)" fill="#ffa91e"/>
      </g>
      <g id="_ffca00ff" data-name="#ffca00ff">
        <path id="Vector-108" data-name="Vector" d="M0,4.038A57.358,57.358,0,0,0,4.286,0,8.127,8.127,0,0,1,6.208,2.919,20.508,20.508,0,0,1,1.05,6.882,27.169,27.169,0,0,0,0,4.038Z" transform="translate(348.078 66.48)" fill="#ffca00"/>
      </g>
      <g id="_2476fdff" data-name="#2476fdff">
        <path id="Vector-109" data-name="Vector" d="M.268.013C.446.007.624,0,.8,0A14.572,14.572,0,0,0,.892,2.353C.594,2.343.3,2.332,0,2.324A15.144,15.144,0,0,1,.268.013Z" transform="translate(318.002 66.62)" fill="#2476fd"/>
      </g>
      <g id="_ff2a30ff" data-name="#ff2a30ff">
        <path id="Vector-110" data-name="Vector" d="M0,1.112C.4.728.819.359,1.244,0c.348.471.724.92,1.113,1.358A14.451,14.451,0,0,1,1.2,2.56C.773,2.1.383,1.609,0,1.112Z" transform="translate(323.512 66.594)" fill="#ff2a30"/>
      </g>
      <g id="_ff8245ff" data-name="#ff8245ff">
        <path id="Vector-111" data-name="Vector" d="M1.4,0,1.57.039c.455.1.913.18,1.376.231.315.034.632.065.951.08-.129.678-.172,1.366-.272,2.047-.082.6-.413,1.176-.248,1.794C2.283,4.875,1.154,5.5,0,6.081c.064-.369.15-.735.207-1.106A5.738,5.738,0,0,1,.4,3.659a8.3,8.3,0,0,0,.642-2.343A4.624,4.624,0,0,1,1.4,0Z" transform="translate(335.46 67.01)" fill="#ff8245"/>
      </g>
      <g id="_ff9632ff" data-name="#ff9632ff">
        <path id="Vector-112" data-name="Vector" d="M2.525.1c.205-.023.41-.056.613-.1-.022.593-.305,1.309.2,1.786-.57.434-1.16.844-1.746,1.258Q.826,3.564.046,4.056C-.12,3.438.211,2.861.294,2.262.394,1.581.437.892.566.215.711.219.856.221,1,.22,1.511.208,2.019.152,2.525.1Z" transform="translate(338.79 67.146)" fill="#ff9632"/>
      </g>
      <g id="_1878feff" data-name="#1878feff">
        <path id="Vector-113" data-name="Vector" d="M1.746,1.175C2.248.789,2.754.407,3.239,0,4.9.16,6.581-.015,8.248.109a36.975,36.975,0,0,1-2.88,2.439,19.1,19.1,0,0,0-2.73-.085C1.759,2.46.879,2.476,0,2.433c.586-.414,1.176-.824,1.746-1.258Z" transform="translate(340.377 67.755)" fill="#1878fe"/>
      </g>
      <g id="_ff3529ff" data-name="#ff3529ff">
        <path id="Vector-114" data-name="Vector" d="M0,1.2A14.453,14.453,0,0,0,1.155,0L1.3.164c.324.353.667.688,1.014,1.018A9.4,9.4,0,0,0,1.193,2.408C.775,2.027.383,1.619,0,1.2Z" transform="translate(324.714 67.949)" fill="#ff3529"/>
      </g>
      <g id="_1179feff" data-name="#1179feff">
        <path id="Vector-115" data-name="Vector" d="M0,0C.3.009.6.019.895.03c.063.429.138.857.233,1.281L.049,1.348H.033C0,.9,0,.449,0,0Z" transform="translate(318 68.944)" fill="#1179fe"/>
      </g>
      <g id="_ff3f23ff" data-name="#ff3f23ff">
        <path id="Vector-116" data-name="Vector" d="M1.124,0c.053.049.158.148.21.2.335.308.69.6,1.05.878-.4.4-.8.788-1.222,1.16C.766,1.909.368,1.583,0,1.225A9.4,9.4,0,0,1,1.124,0Z" transform="translate(325.906 69.131)" fill="#ff3f23"/>
      </g>
      <g id="_0082ffff" data-name="#0082ffff">
        <path id="Vector-117" data-name="Vector" d="M0,.1C.36.084.733.077,1.092.065A7.07,7.07,0,0,0,3.567,4.051,8.016,8.016,0,0,0,8.953,5.43a19.021,19.021,0,0,0,5.4-1.207c.623-.233,1.241-.477,1.848-.748.416-.172.82-.37,1.222-.573,1.154-.577,2.283-1.206,3.376-1.89Q21.579.519,22.342,0c.879.043,1.759.027,2.638.029a19.1,19.1,0,0,1,2.73.085c-.722.6-1.492,1.136-2.256,1.679l-.014.01a36.645,36.645,0,0,1-10.45,5.153,17.888,17.888,0,0,1-7.745.682A8.889,8.889,0,0,1,2.122,5.072,8.327,8.327,0,0,1,0,.1Z" transform="translate(318.035 70.189)" fill="#0082ff"/>
      </g>
      <g id="_ff4a1bff" data-name="#ff4a1bff">
        <path id="Vector-118" data-name="Vector" d="M0,1.16C.421.788.824.4,1.222,0q.274.211.556.414c.192.138.387.274.585.406A9.439,9.439,0,0,1,1.33,2.131C.874,1.825.434,1.5,0,1.16Z" transform="translate(327.068 70.209)" fill="#ff4a1b"/>
      </g>
      <g id="_ffb700ff" data-name="#ffb700ff">
        <path id="Vector-119" data-name="Vector" d="M0,3.51C1.636,2.435,3.183,1.227,4.707,0a27.169,27.169,0,0,1,1.05,2.844A20.242,20.242,0,0,1,.177,4.85Q.1,4.177,0,3.51Z" transform="translate(343.37 70.517)" fill="#ffb700"/>
      </g>
      <g id="_ff5316ff" data-name="#ff5316ff">
        <path id="Vector-120" data-name="Vector" d="M0,1.312A9.439,9.439,0,0,0,1.034,0c.357.233.726.448,1.094.666L2.362.8c-.275.482-.559.958-.843,1.436Q.74,1.805,0,1.312Z" transform="translate(328.398 71.027)" fill="#ff5316"/>
      </g>
      <g id="_ff5e0bff" data-name="#ff5e0bff">
        <path id="Vector-121" data-name="Vector" d="M.843,0A14.13,14.13,0,0,0,2.3.7L2.282.732a5.316,5.316,0,0,0-.859,1.416C.94,1.929.464,1.694,0,1.436.284.958.568.482.843,0Z" transform="translate(329.918 71.829)" fill="#ff5e0b"/>
      </g>
      <g id="_c0c1c7ff" data-name="#c0c1c7ff">
        <path id="Vector-122" data-name="Vector" d="M.012,0,0,.008Z" transform="translate(343.477 71.984)" fill="#c0c1c7"/>
      </g>
      <g id="_ff6900ff" data-name="#ff6900ff">
        <path id="Vector-123" data-name="Vector" d="M0,1.416A5.316,5.316,0,0,1,.859,0,24.808,24.808,0,0,0,3.292.841C3.161.93,3.03,1.019,2.9,1.1c-.607.271-1.225.516-1.848.748C.7,1.716.346,1.57,0,1.416Z" transform="translate(331.34 72.563)" fill="#ff6900"/>
      </g>
      <g id="_ffa500ff" data-name="#ffa500ff">
        <path id="Vector-124" data-name="Vector" d="M0,1.682C.888,1.077,1.857.6,2.749,0q.1.668.177,1.339A17.889,17.889,0,0,1,0,1.682Z" transform="translate(340.621 74.027)" fill="orange"/>
      </g>
    </g>
  </g>
</svg>
