<svg xmlns="http://www.w3.org/2000/svg" width="224" height="88" viewBox="0 0 224 88">
  <g id="Logo" transform="translate(-574 -972)">
    <g id="Rectangle_98" data-name="Rectangle 98" transform="translate(574 972)" fill="#fff" stroke="rgba(255,255,255,0.5)" stroke-width="1">
      <rect width="224" height="88" stroke="none"/>
      <rect x="0.5" y="0.5" width="223" height="87" fill="none"/>
    </g>
    <g id="Logo_5" data-name="Logo 5">
      <g id="_-Landing-Pages" data-name="🖥-Landing-Pages">
        <g id="Logos">
          <g id="Logos-raw">
            <g id="Logo-5">
              <path id="Dorfus" d="M0,26.888a6.146,6.146,0,0,0,2.195-.435,2.286,2.286,0,0,0,1.186-2.234V4.251A2.259,2.259,0,0,0,2.254,2.076,6.226,6.226,0,0,0,0,1.582V.554H12.376q7.493,0,11.427,3.994,3.578,3.638,3.578,9.767a13.07,13.07,0,0,1-3.6,9.312q-4.053,4.29-10.992,4.29H0Zm9.925-2.709a3.453,3.453,0,0,0,.455,1.8,2.107,2.107,0,0,0,1.74.554A7.652,7.652,0,0,0,18.031,24q2.313-2.55,2.313-9.767A19.667,19.667,0,0,0,19.1,6.86Q17.082,1.9,12.3,1.9q-1.582,0-2.056.672a3.088,3.088,0,0,0-.316,1.68Z" transform="translate(627 1002)" fill="#a4a4a4"/>
              <path id="Dorfus-2" data-name="Dorfus" d="M29.6,18.644a10.053,10.053,0,0,1,2.59-7.058A8.532,8.532,0,0,1,38.73,8.758a8.359,8.359,0,0,1,6.564,2.886,10.155,10.155,0,0,1,2.57,7,10.316,10.316,0,0,1-2.531,6.979,8.34,8.34,0,0,1-6.6,2.906A8.493,8.493,0,0,1,32.186,25.7a10.1,10.1,0,0,1-2.59-7.058Zm5.951,0a27.537,27.537,0,0,0,.435,5.951q.692,2.629,2.748,2.629a2.509,2.509,0,0,0,2.57-2.017,24.917,24.917,0,0,0,.613-6.564,23.369,23.369,0,0,0-.652-6.544,2.5,2.5,0,0,0-2.511-2.036q-2.056,0-2.748,2.629a26.854,26.854,0,0,0-.455,5.951Z" transform="translate(627 1002)" fill="#a4a4a4"/>
              <path id="Dorfus-3" data-name="Dorfus" d="M49.683,26.947a2.961,2.961,0,0,0,1.621-.554,2.258,2.258,0,0,0,.494-1.6l.04-1.186V12.594a2.527,2.527,0,0,0-.435-1.72,2.919,2.919,0,0,0-1.72-.613V9.272h7.691v3.183a14.68,14.68,0,0,1,2.55-2.669A4.619,4.619,0,0,1,62.85,8.8a3.43,3.43,0,0,1,2.234.811,2.785,2.785,0,0,1,1.008,2.333,2.773,2.773,0,0,1-.712,1.957,2.327,2.327,0,0,1-1.819.771,2.785,2.785,0,0,1-2.234-1.206q-.929-1.206-1.3-1.206a2.252,2.252,0,0,0-1.641,1.008,4.388,4.388,0,0,0-.811,2.847v7.651q0,2.017.573,2.531a4.522,4.522,0,0,0,2.333.652v.969H49.683Z" transform="translate(627 1002)" fill="#a4a4a4"/>
              <path id="Dorfus-4" data-name="Dorfus" d="M67.5,26.947a3.147,3.147,0,0,0,1.779-.554,2.43,2.43,0,0,0,.554-1.9V11.329H67.5V9.549h2.333v-1.5a10.577,10.577,0,0,1,.89-4.646Q72.4,0,76.927,0A7.178,7.178,0,0,1,81,1.107a3.3,3.3,0,0,1,1.68,2.886,2.422,2.422,0,0,1-.712,1.819A2.511,2.511,0,0,1,80.11,6.5a2.375,2.375,0,0,1-1.661-.633,1.991,1.991,0,0,1-.692-1.522,2.753,2.753,0,0,1,.435-1.4,3.2,3.2,0,0,0,.455-.909.6.6,0,0,0-.356-.633,2.109,2.109,0,0,0-.771-.138A1.978,1.978,0,0,0,76,1.839a3.882,3.882,0,0,0-.534,2.471V9.549h3.519v1.779H75.464V23.764q0,2.1.593,2.57a5.567,5.567,0,0,0,2.689.613v.969H67.5Z" transform="translate(627 1002)" fill="#a4a4a4"/>
              <path id="Dorfus-5" data-name="Dorfus" d="M88.71,9.272V23.013a4.111,4.111,0,0,0,.3,1.8,2.064,2.064,0,0,0,2.036,1.008,3.411,3.411,0,0,0,1.9-.613,8.851,8.851,0,0,0,1.344-1.127V12.594a2.4,2.4,0,0,0-.514-1.76,3.026,3.026,0,0,0-2.017-.573V9.272h8.066V23.843a2.534,2.534,0,0,0,.474,1.76,3.057,3.057,0,0,0,1.858.593v.929q-3.756.356-4.745.534a26.163,26.163,0,0,0-3.124.83V25.82a14.623,14.623,0,0,1-2.392,1.76,7.108,7.108,0,0,1-3.46.909,6.071,6.071,0,0,1-3.658-1.246Q83.1,26,83.1,22.815V12.594a2.4,2.4,0,0,0-.415-1.68,3.493,3.493,0,0,0-1.6-.652V9.272Z" transform="translate(627 1002)" fill="#a4a4a4"/>
              <path id="Dorfus-6" data-name="Dorfus" d="M103.993,21.787h1.127a6.518,6.518,0,0,0,2.214,4.112,5.57,5.57,0,0,0,3.321,1.186,3.247,3.247,0,0,0,2.293-.692,2.65,2.65,0,0,0-.059-3.717,5.767,5.767,0,0,0-1.4-.89l-3.005-1.463a9.349,9.349,0,0,1-3.4-2.531,5.137,5.137,0,0,1-1.048-3.223,5.634,5.634,0,0,1,1.641-4.053A6.038,6.038,0,0,1,110.26,8.8a9.467,9.467,0,0,1,2.728.435,9.637,9.637,0,0,0,1.8.415.965.965,0,0,0,.692-.2,1.615,1.615,0,0,0,.356-.593h.89v5.852H115.7a7.075,7.075,0,0,0-1.878-3.3,4.271,4.271,0,0,0-3.045-1.246,2.568,2.568,0,0,0-2.017.751,2.429,2.429,0,0,0-.652,1.621,2.229,2.229,0,0,0,.593,1.423,6.233,6.233,0,0,0,2.175,1.5l2.214,1.068a11.5,11.5,0,0,1,3.005,1.918,5.293,5.293,0,0,1,1.582,3.895,6.438,6.438,0,0,1-1.641,4.211,6.006,6.006,0,0,1-4.883,1.938,7.815,7.815,0,0,1-1.641-.178,15.637,15.637,0,0,1-2.017-.573L106.8,27.5a4.556,4.556,0,0,0-.474-.158.938.938,0,0,0-.217-.02.788.788,0,0,0-.593.277,4.075,4.075,0,0,0-.554.89h-.969Z" transform="translate(627 1002)" fill="#a4a4a4"/>
            </g>
          </g>
        </g>
      </g>
    </g>
  </g>
</svg>
