<svg xmlns="http://www.w3.org/2000/svg" width="224" height="88" viewBox="0 0 224 88">
  <g id="Logo" transform="translate(-1396 -972)">
    <g id="Rectangle_101" data-name="Rectangle 101" transform="translate(1396 972)" fill="#fff" stroke="rgba(255,255,255,0.5)" stroke-width="1">
      <rect width="224" height="88" stroke="none"/>
      <rect x="0.5" y="0.5" width="223" height="87" fill="none"/>
    </g>
    <g id="_10" data-name="10">
      <g id="Page-1">
        <g id="_1" data-name="1">
          <g id="_10-2" data-name="10">
            <g id="Group-5">
              <path id="Fill-1" d="M20.963,0V7.365L0,24.69V17.325Z" transform="translate(1428 997.121)" fill="#a4a4a4" fill-rule="evenodd"/>
              <path id="Fill-2" d="M20.963,0V7.365L0,24.69V17.325Z" transform="translate(1428 1011.563)" fill="#a4a4a4" fill-rule="evenodd"/>
              <path id="Fill-3" d="M20.963,0V7.365L0,24.69V17.325Z" transform="translate(1437.318 997.121)" fill="#a4a4a4" fill-rule="evenodd"/>
              <path id="Fill-4" d="M20.963,0V7.365L0,24.69V17.325Z" transform="translate(1437.318 1011.563)" fill="#a4a4a4" fill-rule="evenodd"/>
            </g>
            <path id="Gobona" d="M3.412,22.826A12.023,12.023,0,0,1,0,13.938,11.344,11.344,0,0,1,3.489,5.246a12.993,12.993,0,0,1,9.255-3.267,23.193,23.193,0,0,1,3.591.29,28.994,28.994,0,0,1,3.8.87V9.076H17.572l-.665-3.7-.529-.631a6.839,6.839,0,0,0-1.4-.426,8.011,8.011,0,0,0-1.5-.136,7.715,7.715,0,0,0-6.167,2.6,10.6,10.6,0,0,0-2.243,7.157,10.768,10.768,0,0,0,2.295,7.31,8,8,0,0,0,6.372,2.636q.273,0,.768-.026t1.143-.077V16.651l-.546-.478L12.505,16V14.279h10.2V16l-2.03.171-.546.478v8.155a27.358,27.358,0,0,1-4.009,1.075,21.066,21.066,0,0,1-3.821.358,12.023,12.023,0,0,1-8.888-3.412Zm22.54.844a8.592,8.592,0,0,1-2.414-6.355,8.724,8.724,0,0,1,2.474-6.491A8.93,8.93,0,0,1,32.58,8.376a8.526,8.526,0,0,1,6.4,2.431,9.014,9.014,0,0,1,2.371,6.577A8.373,8.373,0,0,1,38.875,23.7a9.056,9.056,0,0,1-6.568,2.388,8.592,8.592,0,0,1-6.355-2.414Zm9.511-1.237a10.166,10.166,0,0,0,1.075-5.152A10.356,10.356,0,0,0,35.455,12.1a3.361,3.361,0,0,0-6-.034,10.142,10.142,0,0,0-1.075,5.118,10.536,10.536,0,0,0,1.066,5.2,3.28,3.28,0,0,0,2.96,1.86A3.374,3.374,0,0,0,35.463,22.434Zm12.483,3.378-3.873-.068V3H41.549V1.638L46.735,0h1.672V9.98a14,14,0,0,1,2.678-1.186,8.1,8.1,0,0,1,2.388-.384,6.258,6.258,0,0,1,4.947,2.218,8.4,8.4,0,0,1,1.928,5.715,9.555,9.555,0,0,1-1.407,5.246,9.155,9.155,0,0,1-4.1,3.421,9.374,9.374,0,0,1-2.414.606,26.953,26.953,0,0,1-3.523.2Zm6.235-3.489q1.493-1.629,1.493-5.075a6.9,6.9,0,0,0-1.314-4.529,4.608,4.608,0,0,0-3.753-1.578,7.842,7.842,0,0,0-.981.068q-.537.068-1.22.2V23.918q.188.017.426.026t.682.009a6.039,6.039,0,0,0,4.666-1.629Zm9.771,1.348a8.592,8.592,0,0,1-2.414-6.355,8.724,8.724,0,0,1,2.474-6.491,8.93,8.93,0,0,1,6.568-2.448,8.526,8.526,0,0,1,6.4,2.431,9.014,9.014,0,0,1,2.371,6.577A8.373,8.373,0,0,1,76.876,23.7a9.056,9.056,0,0,1-6.568,2.388,8.592,8.592,0,0,1-6.355-2.414Zm9.511-1.237a10.166,10.166,0,0,0,1.075-5.152A10.356,10.356,0,0,0,73.455,12.1a3.361,3.361,0,0,0-6-.034,10.142,10.142,0,0,0-1.075,5.118,10.536,10.536,0,0,0,1.066,5.2,3.28,3.28,0,0,0,2.96,1.86A3.374,3.374,0,0,0,73.464,22.434Zm6.854,3.378v-1.57l1.791-.136.495-.529V11.516H80.215v-1.4l5.033-1.638h1.689v2.064a23.357,23.357,0,0,1,3.446-1.621,7.761,7.761,0,0,1,2.525-.512,4.346,4.346,0,0,1,3.566,1.433,6.788,6.788,0,0,1,1.177,4.367v9.366l.461.529,1.842.136v1.57H91.407v-1.57l1.5-.136.478-.529V15.218a4.462,4.462,0,0,0-.751-2.858,2.917,2.917,0,0,0-2.388-.913,8.113,8.113,0,0,0-1.459.154q-.827.154-1.851.444V23.577l.478.529,1.535.136v1.57Zm21.576-.964a4.407,4.407,0,0,1-1.28-3.267,4.366,4.366,0,0,1,1.877-3.787q1.877-1.331,8.752-2.883V13.87a3.992,3.992,0,0,0-.8-2.764,3.281,3.281,0,0,0-2.525-.87,6.333,6.333,0,0,0-.785.051q-.409.051-.887.154v3.276H103.02a1.951,1.951,0,0,1-1.22-.307,1.171,1.171,0,0,1-.384-.972q0-1.638,2.2-2.849a11.085,11.085,0,0,1,5.408-1.211q3.6,0,5.067,1.382t1.467,4.811v9.042l.461.495,1.86.171v1.535h-6.227l-.461-2a15.66,15.66,0,0,1-3.224,1.757,7.884,7.884,0,0,1-2.781.546,4.473,4.473,0,0,1-3.293-1.271Zm7.43-1.672a11.85,11.85,0,0,0,1.868-.793v-5.7a14.055,14.055,0,0,0-4.709,1.672,2.865,2.865,0,0,0-1.262,2.457,2.611,2.611,0,0,0,.7,1.919,2.541,2.541,0,0,0,1.894.708,5.119,5.119,0,0,0,1.51-.264Z" transform="translate(1470.393 996)" fill="#a4a4a4"/>
            <path id="YourTrustedCurrier" d="M1.724,7.2V6.8l.664-.048.158-.139V4.538L.6,1.123l-.6-.1V.635H2.274v.392l-.559.057-.1.11,1.5,2.689L4.758,1.271l-.091-.139-.6-.105V.635h2v.392l-.6.124L3.435,4.409v2.2l.158.139.664.048v.4ZM5.6,6.6a2.48,2.48,0,0,1-.638-1.763,2.491,2.491,0,0,1,.633-1.763,2.129,2.129,0,0,1,1.636-.683,2.142,2.142,0,0,1,1.638.685,2.476,2.476,0,0,1,.64,1.76A2.471,2.471,0,0,1,8.867,6.6a2.144,2.144,0,0,1-1.636.685A2.133,2.133,0,0,1,5.6,6.6Zm2.62-.287a2.591,2.591,0,0,0,.373-1.476,2.583,2.583,0,0,0-.375-1.471,1.152,1.152,0,0,0-1.968,0,2.606,2.606,0,0,0-.37,1.474,2.594,2.594,0,0,0,.373,1.474,1.155,1.155,0,0,0,1.968,0Zm2.614.595A1.636,1.636,0,0,1,10.5,5.8V3.062H9.8V2.756l1.137-.363h.373V5.632a1.138,1.138,0,0,0,.229.786.926.926,0,0,0,.717.251,2.215,2.215,0,0,0,.552-.072,3.137,3.137,0,0,0,.585-.22V3.062h-.7V2.756l1.137-.363H14.2V6.64l.177.158.459.048V7.2H13.392V6.649a4.164,4.164,0,0,1-.848.487,1.969,1.969,0,0,1-.738.158,1.223,1.223,0,0,1-.972-.385Zm4.243.289V6.845L15.6,6.8l.167-.158V3.1h-.688V2.794l1.137-.349h.373v.917q.239-.244.5-.48t.547-.466a.42.42,0,0,1,.093-.019q.05,0,.15,0a1.372,1.372,0,0,1,.291.031,1.571,1.571,0,0,1,.3.1v.841h-.31a.63.63,0,0,0-.5-.234.9.9,0,0,0-.494.174,2.911,2.911,0,0,0-.571.542V6.64l.167.158.683.048V7.2Zm7.153,0V6.8l.654-.048.167-.139V1.084h-1.5l-.139.148-.139.908h-.535V.635h5.527v1.5h-.54L25.6,1.232l-.139-.148h-1.5V6.611l.162.139.659.048v.4Zm3.452,0V6.845L26.2,6.8l.167-.158V3.1h-.688V2.794l1.137-.349h.373v.917q.239-.244.5-.48t.547-.466a.42.42,0,0,1,.093-.019q.05,0,.15,0a1.372,1.372,0,0,1,.291.031,1.571,1.571,0,0,1,.3.1v.841h-.31a.63.63,0,0,0-.5-.234.9.9,0,0,0-.494.174,2.911,2.911,0,0,0-.571.542V6.64l.167.158.683.048V7.2Zm4.405-.289A1.636,1.636,0,0,1,29.751,5.8V3.062h-.7V2.756l1.137-.363h.373V5.632a1.138,1.138,0,0,0,.229.786.926.926,0,0,0,.717.251A2.215,2.215,0,0,0,32.06,6.6a3.137,3.137,0,0,0,.585-.22V3.062h-.7V2.756l1.137-.363h.373V6.64l.177.158.459.048V7.2H32.645V6.649a4.164,4.164,0,0,1-.848.487,1.969,1.969,0,0,1-.738.158,1.223,1.223,0,0,1-.972-.385Zm4.957.325a2.876,2.876,0,0,1-.595-.155V5.809h.468l.119.831a1.746,1.746,0,0,0,.413.177,1.565,1.565,0,0,0,.418.057.982.982,0,0,0,.666-.217.719.719,0,0,0,.251-.571.71.71,0,0,0-.172-.49,2.777,2.777,0,0,0-.822-.49,3.143,3.143,0,0,1-1-.621,1.032,1.032,0,0,1-.265-.721,1.216,1.216,0,0,1,.454-1.013,2.021,2.021,0,0,1,1.28-.358,3.236,3.236,0,0,1,.614.055,2.657,2.657,0,0,1,.533.16V3.716h-.482l-.076-.693a2,2,0,0,0-.373-.158,1.235,1.235,0,0,0-.353-.053.882.882,0,0,0-.6.186.652.652,0,0,0-.215.521.668.668,0,0,0,.172.463,2.224,2.224,0,0,0,.659.425q.076.038.234.11a3.8,3.8,0,0,1,.8.459.927.927,0,0,1,.277.361,1.18,1.18,0,0,1,.1.48A1.305,1.305,0,0,1,37.065,6.9a2.093,2.093,0,0,1-1.345.389,4.395,4.395,0,0,1-.676-.05Zm3.667-.22a1.046,1.046,0,0,1-.227-.776V3.081h-.616V2.775l.645-.282.42-.912H39.3V2.622h1.49v.459H39.3V5.661a1.438,1.438,0,0,0,.177.853.782.782,0,0,0,.635.217,2.923,2.923,0,0,0,.327-.019,2.967,2.967,0,0,0,.351-.062v.363a4.953,4.953,0,0,1-.659.16,3.753,3.753,0,0,1-.626.055,1.152,1.152,0,0,1-.791-.213Zm2.822-.4a2.485,2.485,0,0,1-.6-1.736,2.561,2.561,0,0,1,.633-1.794,2.1,2.1,0,0,1,1.627-.7,1.661,1.661,0,0,1,1.287.518,2.008,2.008,0,0,1,.475,1.412q0,.119,0,.182a.947.947,0,0,1-.012.119H41.77v.11a2.221,2.221,0,0,0,.444,1.459,1.475,1.475,0,0,0,1.2.537,2.084,2.084,0,0,0,.724-.139,4.03,4.03,0,0,0,.814-.43V6.7a3.62,3.62,0,0,1-.9.435,3.1,3.1,0,0,1-.941.148,2.025,2.025,0,0,1-1.574-.666ZM44.077,4.06a1.392,1.392,0,0,0-.26-.908.926.926,0,0,0-.757-.315,1.106,1.106,0,0,0-.843.389,1.582,1.582,0,0,0-.4.986h2.259Zm1.855,2.582A2.492,2.492,0,0,1,45.4,5a2.6,2.6,0,0,1,.7-1.889,2.421,2.421,0,0,1,1.822-.724,3.219,3.219,0,0,1,.416.029q.22.029.454.081V.654h-.75V.349L49.235,0H49.6V6.64l.167.158.468.048V7.2H48.791V6.692a2.935,2.935,0,0,1-.745.449,2.05,2.05,0,0,1-.76.143,1.683,1.683,0,0,1-1.354-.642Zm2.317-.057a2.406,2.406,0,0,0,.542-.256V2.971q-.267-.076-.48-.117a2.047,2.047,0,0,0-.38-.041,1.5,1.5,0,0,0-1.211.554,2.211,2.211,0,0,0-.461,1.462,2.084,2.084,0,0,0,.4,1.342,1.3,1.3,0,0,0,1.068.5,1.733,1.733,0,0,0,.523-.084Zm7.265.633a3,3,0,0,1-.764-.291,3.236,3.236,0,0,1-1.24-1.254,3.538,3.538,0,0,1-.451-1.76,3.329,3.329,0,0,1,.934-2.462A3.329,3.329,0,0,1,56.455.516,5.445,5.445,0,0,1,57.379.6,7.6,7.6,0,0,1,58.39.85v1.5h-.545L57.7,1.466l-.129-.177a2.9,2.9,0,0,0-.549-.191,2.4,2.4,0,0,0-.545-.062,2.2,2.2,0,0,0-1.758.755,3.044,3.044,0,0,0-.65,2.054,3.207,3.207,0,0,0,.678,2.166,2.349,2.349,0,0,0,1.877.786,2.921,2.921,0,0,0,.423-.031,2.8,2.8,0,0,0,.428-.1l.153-.153.239-1.089h.525V6.974a6.383,6.383,0,0,1-.984.256,5.691,5.691,0,0,1-.989.088,3.882,3.882,0,0,1-.9-.1Zm4.267-.308A1.636,1.636,0,0,1,59.444,5.8V3.062h-.7V2.756l1.137-.363h.373V5.632a1.138,1.138,0,0,0,.229.786.926.926,0,0,0,.717.251,2.215,2.215,0,0,0,.552-.072,3.137,3.137,0,0,0,.585-.22V3.062h-.7V2.756l1.137-.363h.373V6.64l.177.158.459.048V7.2H62.339V6.649a4.164,4.164,0,0,1-.848.487,1.969,1.969,0,0,1-.738.158,1.223,1.223,0,0,1-.972-.385Zm4.243.289V6.845l.521-.048.167-.158V3.1h-.688V2.794l1.137-.349h.373v.917q.239-.244.5-.48t.547-.466a.42.42,0,0,1,.093-.019q.05,0,.15,0a1.372,1.372,0,0,1,.291.031,1.571,1.571,0,0,1,.3.1v.841H67.1a.63.63,0,0,0-.5-.234A.9.9,0,0,0,66.1,3.3a2.911,2.911,0,0,0-.571.542V6.64L65.7,6.8l.683.048V7.2Zm3.409,0V6.845l.521-.048.167-.158V3.1h-.688V2.794l1.137-.349h.373v.917q.239-.244.5-.48t.547-.466a.42.42,0,0,1,.093-.019q.05,0,.15,0a1.372,1.372,0,0,1,.291.031,1.571,1.571,0,0,1,.3.1v.841h-.31a.63.63,0,0,0-.5-.234.9.9,0,0,0-.494.174,2.911,2.911,0,0,0-.571.542V6.64l.167.158.683.048V7.2Zm4.224-5.961a.535.535,0,0,1-.165-.4.549.549,0,0,1,.165-.4.568.568,0,0,1,.8,0,.551.551,0,0,1,.165.4.535.535,0,0,1-.165.4.553.553,0,0,1-.4.162A.547.547,0,0,1,71.657,1.237ZM70.895,7.2V6.845l.516-.048.167-.158V3.1h-.683V2.794l1.123-.349H72.4V6.64l.167.158.525.048V7.2Zm3.034-.58a2.485,2.485,0,0,1-.6-1.736,2.561,2.561,0,0,1,.633-1.794,2.1,2.1,0,0,1,1.627-.7,1.661,1.661,0,0,1,1.287.518,2.008,2.008,0,0,1,.475,1.412q0,.119,0,.182a.946.946,0,0,1-.012.119H74.166v.11a2.221,2.221,0,0,0,.444,1.459,1.475,1.475,0,0,0,1.2.537,2.084,2.084,0,0,0,.724-.139,4.03,4.03,0,0,0,.814-.43V6.7a3.62,3.62,0,0,1-.9.435,3.1,3.1,0,0,1-.941.148,2.025,2.025,0,0,1-1.574-.666ZM76.473,4.06a1.392,1.392,0,0,0-.26-.908.926.926,0,0,0-.757-.315,1.106,1.106,0,0,0-.843.389,1.582,1.582,0,0,0-.4.986h2.259ZM77.733,7.2V6.845l.521-.048.167-.158V3.1h-.688V2.794l1.137-.349h.373v.917q.239-.244.5-.48t.547-.466a.42.42,0,0,1,.093-.019q.05,0,.15,0a1.372,1.372,0,0,1,.291.031,1.571,1.571,0,0,1,.3.1v.841h-.31a.63.63,0,0,0-.5-.234.9.9,0,0,0-.494.174,2.911,2.911,0,0,0-.571.542V6.64l.167.158.683.048V7.2Z" transform="translate(1470.264 1027.191)" fill="#a4a4a4"/>
          </g>
        </g>
      </g>
    </g>
  </g>
</svg>
