<svg xmlns="http://www.w3.org/2000/svg" width="224" height="88" viewBox="0 0 224 88">
  <g id="Logo" transform="translate(-848 -972)">
    <g id="Rectangle_99" data-name="Rectangle 99" transform="translate(848 972)" fill="#fff" stroke="rgba(255,255,255,0.5)" stroke-width="1">
      <rect width="224" height="88" stroke="none"/>
      <rect x="0.5" y="0.5" width="223" height="87" fill="none"/>
    </g>
    <g id="_6" data-name="6">
      <g id="Page-1">
        <g id="_5" data-name="5">
          <g id="_6-2" data-name="6">
            <path id="Martino" d="M0,21.154V1.069H5.631L9.223,12.3l.314,1.083.684,2.694.9-3.222L14.811,1.069h5.6V21.154H16.678V8.981q0-.413.007-.827t.135-3.55q-.776,2.94-1.242,4.514l-.079.263q-.1.316-.176.568L11.7,21.154H8.71L5.089,9.95,3.564,4.6q.171,3.307.171,4.376V21.154Zm24.451-.934A4.559,4.559,0,0,1,23.2,16.792a4.406,4.406,0,0,1,1.561-3.649,7.2,7.2,0,0,1,4.526-1.283L32.6,11.8v-.784a3.865,3.865,0,0,0-.527-2.245,1.978,1.978,0,0,0-1.725-.734,2.269,2.269,0,0,0-1.632.506,2.7,2.7,0,0,0-.649,1.675l-4.177-.2a4.97,4.97,0,0,1,2.06-3.414,7.9,7.9,0,0,1,4.569-1.162,6.461,6.461,0,0,1,4.5,1.44,5.25,5.25,0,0,1,1.582,4.091v5.616a3.818,3.818,0,0,0,.292,1.789,1.045,1.045,0,0,0,.976.492,4.5,4.5,0,0,0,.884-.086v2.167q-.356.086-.641.157t-.57.114q-.285.043-.606.071t-.748.029a2.987,2.987,0,0,1-2.231-.741A3.536,3.536,0,0,1,33.1,18.4h-.086a5.455,5.455,0,0,1-5.075,3.036,4.8,4.8,0,0,1-3.492-1.219Zm6.493-2.088a3.494,3.494,0,0,0,1.219-1.418A4.315,4.315,0,0,0,32.6,14.8v-.784l-2.053.029a6.2,6.2,0,0,0-1.981.306,1.852,1.852,0,0,0-.891.763,2.654,2.654,0,0,0-.306,1.368,2.3,2.3,0,0,0,.506,1.632,1.768,1.768,0,0,0,1.347.535,3.051,3.051,0,0,0,1.718-.513Zm9.647,3.022V9.351q0-1.269-.036-2.117t-.078-1.5H44.3q.043.257.114,1.561t.071,1.732h.057A10.873,10.873,0,0,1,45.58,6.735a2.95,2.95,0,0,1,1.083-.984,3.425,3.425,0,0,1,1.568-.321,3.029,3.029,0,0,1,1.24.214v3.35a8.061,8.061,0,0,0-1.711-.214A2.671,2.671,0,0,0,45.43,9.993a6.35,6.35,0,0,0-.834,3.592v7.569Zm12.562-.706a3.982,3.982,0,0,1-.955-2.915V8.439H50.245V5.731H52.4L53.652,2.11H56.16V5.731h2.922V8.439H56.16V16.45a2.642,2.642,0,0,0,.428,1.661,1.6,1.6,0,0,0,1.326.535,6.477,6.477,0,0,0,1.34-.2v2.48a10.858,10.858,0,0,1-3.378.485,3.667,3.667,0,0,1-2.723-.962Zm8.471-17.5V0h4.006V2.951Zm0,18.2V5.731h4.006V21.154Zm8.086,0V9.18q0-1.24-.036-2.031T69.6,5.731h3.82q.043.271.114,1.447T73.6,8.8h.057A5.878,5.878,0,0,1,75.7,6.229a5.236,5.236,0,0,1,2.922-.8,4.714,4.714,0,0,1,3.763,1.511,6.561,6.561,0,0,1,1.311,4.419v9.793H79.7V12.5q0-4.063-2.751-4.063a2.753,2.753,0,0,0-2.345,1.247,5.376,5.376,0,0,0-.891,3.2v8.268ZM88.672,19.3a8.128,8.128,0,0,1-2.053-5.873,8.083,8.083,0,0,1,2.053-5.852,7.6,7.6,0,0,1,5.745-2.131,7.649,7.649,0,0,1,5.766,2.06,8.19,8.19,0,0,1,1.989,5.923,8.057,8.057,0,0,1-2.081,5.88,7.679,7.679,0,0,1-5.759,2.131A7.475,7.475,0,0,1,88.672,19.3Zm9.309-5.873a6.918,6.918,0,0,0-.9-3.991A3.021,3.021,0,0,0,94.473,8.2q-3.649,0-3.649,5.232a7.139,7.139,0,0,0,.891,3.927A2.9,2.9,0,0,0,94.288,18.7q3.692,0,3.692-5.274Z" transform="translate(931.07 999.34)" fill="#a4a4a4"/>
            <path id="Colorsofyourlife" d="M.744,5.418A3.268,3.268,0,0,1,0,3.148,3.294,3.294,0,0,1,.733.894,2.4,2.4,0,0,1,2.625.06,2.041,2.041,0,0,1,3.907.471a2.534,2.534,0,0,1,.8,1.017l-.845.277A1.418,1.418,0,0,0,2.61.9a1.352,1.352,0,0,0-1.163.609,2.783,2.783,0,0,0-.43,1.634,2.776,2.776,0,0,0,.434,1.645A1.357,1.357,0,0,0,2.61,5.4a1.314,1.314,0,0,0,.834-.284,1.652,1.652,0,0,0,.527-.7l.882.277a2.737,2.737,0,0,1-.288.52,3.052,3.052,0,0,1-.441.494A1.992,1.992,0,0,1,3.47,6.1a2.388,2.388,0,0,1-.845.146A2.422,2.422,0,0,1,.744,5.418ZM6.487,6.1a1.67,1.67,0,0,1-.576-.374,1.975,1.975,0,0,1-.366-.538,2.522,2.522,0,0,1-.2-.613,3.381,3.381,0,0,1-.056-.617A2.606,2.606,0,0,1,5.8,2.326,1.758,1.758,0,0,1,7.284,1.66a1.75,1.75,0,0,1,1.481.666,2.606,2.606,0,0,1,.509,1.63,3.239,3.239,0,0,1-.056.6,2.63,2.63,0,0,1-.2.609,2.073,2.073,0,0,1-.359.546,1.615,1.615,0,0,1-.572.385,2.054,2.054,0,0,1-.8.15,2.08,2.08,0,0,1-.8-.146ZM7.994,5.07A1.708,1.708,0,0,0,8.3,3.956,1.719,1.719,0,0,0,7.994,2.83a.91.91,0,0,0-.71-.363.921.921,0,0,0-.714.363,1.7,1.7,0,0,0-.31,1.125A1.708,1.708,0,0,0,6.566,5.07a.879.879,0,0,0,1.428,0ZM10.133,6.11V0h.942V6.11Zm3-.011a1.67,1.67,0,0,1-.576-.374,1.975,1.975,0,0,1-.366-.538,2.523,2.523,0,0,1-.2-.613,3.381,3.381,0,0,1-.056-.617,2.606,2.606,0,0,1,.509-1.63,1.758,1.758,0,0,1,1.488-.666,1.75,1.75,0,0,1,1.481.666,2.606,2.606,0,0,1,.509,1.63,3.24,3.24,0,0,1-.056.6,2.63,2.63,0,0,1-.2.609,2.073,2.073,0,0,1-.359.546,1.615,1.615,0,0,1-.572.385,2.054,2.054,0,0,1-.8.15,2.08,2.08,0,0,1-.8-.146ZM14.642,5.07a1.708,1.708,0,0,0,.307-1.114,1.719,1.719,0,0,0-.307-1.125.91.91,0,0,0-.71-.363.921.921,0,0,0-.714.363,1.7,1.7,0,0,0-.31,1.125,1.708,1.708,0,0,0,.307,1.114.879.879,0,0,0,1.428,0ZM16.7,6.11V1.795h.912v.464a1.326,1.326,0,0,1,.408-.419,1.1,1.1,0,0,1,.632-.179,1.381,1.381,0,0,1,.561.1v.86a1.855,1.855,0,0,0-.561-.09.846.846,0,0,0-.744.378,1.754,1.754,0,0,0-.258,1.006v2.2Zm3.436-.142a1.9,1.9,0,0,1-.752-.755l.681-.4a1.358,1.358,0,0,0,1.167.658.985.985,0,0,0,.557-.138.426.426,0,0,0,.206-.37.421.421,0,0,0-.168-.329,1.224,1.224,0,0,0-.355-.213q-.187-.071-.561-.191-.067-.022-.1-.03a4.232,4.232,0,0,1-.452-.176,2.426,2.426,0,0,1-.385-.232.947.947,0,0,1-.307-.366,1.182,1.182,0,0,1-.1-.512A1.071,1.071,0,0,1,20.041,2,1.984,1.984,0,0,1,21.23,1.66a1.927,1.927,0,0,1,1,.28,1.839,1.839,0,0,1,.7.714l-.628.381a1.294,1.294,0,0,0-1.069-.606.863.863,0,0,0-.527.138.433.433,0,0,0-.183.363.439.439,0,0,0,.161.333,1.089,1.089,0,0,0,.333.213q.172.067.486.172a1.22,1.22,0,0,1,.12.037q1.331.426,1.331,1.286a1.132,1.132,0,0,1-.445.9,1.918,1.918,0,0,1-1.26.37,2.233,2.233,0,0,1-1.118-.277Zm6.386.131a1.67,1.67,0,0,1-.576-.374,1.975,1.975,0,0,1-.366-.538,2.523,2.523,0,0,1-.2-.613,3.381,3.381,0,0,1-.056-.617,2.606,2.606,0,0,1,.509-1.63,1.988,1.988,0,0,1,2.969,0,2.606,2.606,0,0,1,.509,1.63,3.24,3.24,0,0,1-.056.6,2.63,2.63,0,0,1-.2.609,2.073,2.073,0,0,1-.359.546,1.615,1.615,0,0,1-.572.385,2.054,2.054,0,0,1-.8.15,2.08,2.08,0,0,1-.8-.146ZM28.028,5.07a1.708,1.708,0,0,0,.307-1.114,1.719,1.719,0,0,0-.307-1.125.91.91,0,0,0-.71-.363.921.921,0,0,0-.714.363,1.7,1.7,0,0,0-.31,1.125A1.708,1.708,0,0,0,26.6,5.07a.879.879,0,0,0,1.428,0ZM30.406,6.11V2.6h-.658V1.795h.658V1.331a1.356,1.356,0,0,1,.333-1A1.269,1.269,0,0,1,31.677,0h.68V.8h-.546a.4.4,0,0,0-.34.142.758.758,0,0,0-.108.456v.4h.9V2.6h-.9V6.11Zm4.322,1.765V7.082h.135a.954.954,0,0,0,.55-.146.986.986,0,0,0,.34-.5L35.895,6l-1.615-4.21h1.039l.74,2.221q.187.613.284.995h.03l.277-.995.681-2.221h1.032L36.575,6.678a1.9,1.9,0,0,1-.617.927,1.576,1.576,0,0,1-.938.269ZM39.884,6.1a1.67,1.67,0,0,1-.576-.374,1.975,1.975,0,0,1-.366-.538,2.522,2.522,0,0,1-.2-.613,3.381,3.381,0,0,1-.056-.617,2.606,2.606,0,0,1,.509-1.63,1.988,1.988,0,0,1,2.969,0,2.606,2.606,0,0,1,.509,1.63,3.239,3.239,0,0,1-.056.6,2.63,2.63,0,0,1-.2.609,2.073,2.073,0,0,1-.359.546,1.615,1.615,0,0,1-.572.385,2.054,2.054,0,0,1-.8.15,2.08,2.08,0,0,1-.8-.146ZM41.391,5.07A1.708,1.708,0,0,0,41.7,3.956a1.719,1.719,0,0,0-.307-1.125.91.91,0,0,0-.71-.363.921.921,0,0,0-.714.363,1.7,1.7,0,0,0-.31,1.125,1.708,1.708,0,0,0,.307,1.114.879.879,0,0,0,1.428,0Zm2.958,1.1a1.535,1.535,0,0,1-.46-.254,1.191,1.191,0,0,1-.359-.527,2.342,2.342,0,0,1-.135-.838V1.795h.95V4.427q0,1.01.71,1.01a.755.755,0,0,0,.666-.363,1.532,1.532,0,0,0,.239-.864V1.795H46.9V6.11H45.99v-.5h-.007a1.1,1.1,0,0,1-.4.434,1.276,1.276,0,0,1-.737.2,1.562,1.562,0,0,1-.5-.079Zm3.586-.056V1.795h.912v.464a1.326,1.326,0,0,1,.408-.419,1.1,1.1,0,0,1,.632-.179,1.381,1.381,0,0,1,.561.1v.86a1.855,1.855,0,0,0-.561-.09.846.846,0,0,0-.744.378,1.754,1.754,0,0,0-.258,1.006v2.2Zm4.958,0V0h.942V6.11Zm2.1-4.958V.112h1.017V1.152Zm.045,4.958V1.795h.935V6.11Zm2.378,0V2.6h-.658V1.795h.658V1.331a1.356,1.356,0,0,1,.333-1A1.269,1.269,0,0,1,58.688,0h.681V.8h-.546a.4.4,0,0,0-.34.142.758.758,0,0,0-.108.456v.4h.9V2.6h-.9V6.11Zm2.793-.494a2.4,2.4,0,0,1-.572-1.683,2.34,2.34,0,0,1,.572-1.656,1.88,1.88,0,0,1,1.44-.617,1.8,1.8,0,0,1,1.406.621A2.336,2.336,0,0,1,63.608,3.9a3.2,3.2,0,0,1-.022.381H60.595a1.285,1.285,0,0,0,.3.849,1,1,0,0,0,.811.355,1.142,1.142,0,0,0,.632-.176,1.165,1.165,0,0,0,.415-.452l.793.269a1.869,1.869,0,0,1-.681.8,2.035,2.035,0,0,1-1.174.322,1.906,1.906,0,0,1-1.477-.628Zm2.172-2.845a.865.865,0,0,0-.733-.348.908.908,0,0,0-.752.355,1.341,1.341,0,0,0-.288.834h2.034a1.359,1.359,0,0,0-.262-.841Z" transform="translate(968.152 1026.828)" fill="#a4a4a4" opacity="0.596"/>
            <g id="floors">
              <path id="Path" d="M30.587,8.615H.8a.81.81,0,0,1-.693-.386A.765.765,0,0,1,.1,7.452L4.126.4a.809.809,0,0,1,.7-.4H34.612A.81.81,0,0,1,35.3.386a.765.765,0,0,1,.01.777L31.29,8.211A.809.809,0,0,1,30.587,8.615Z" transform="matrix(0, -1, 1, 0, 887, 1033.416)" fill="#a4a4a4"/>
              <path id="Path-2" data-name="Path" d="M30.587,8.615H.8a.81.81,0,0,1-.693-.386A.765.765,0,0,1,.1,7.452L4.126.4a.809.809,0,0,1,.7-.4H34.612A.81.81,0,0,1,35.3.386a.765.765,0,0,1,.01.777L31.29,8.211A.809.809,0,0,1,30.587,8.615Z" transform="matrix(0, -1, 1, 0, 898.486, 1033.417)" fill="#a4a4a4"/>
              <path id="Path-3" data-name="Path" d="M30.587,8.615H.8a.81.81,0,0,1-.693-.386A.765.765,0,0,1,.1,7.452L4.126.4a.809.809,0,0,1,.7-.4H34.612A.81.81,0,0,1,35.3.386a.765.765,0,0,1,.01.777L31.29,8.211A.809.809,0,0,1,30.587,8.615Z" transform="matrix(0, -1, 1, 0, 909.971, 1033.417)" fill="#a4a4a4"/>
            </g>
          </g>
        </g>
      </g>
    </g>
  </g>
</svg>
