<svg xmlns="http://www.w3.org/2000/svg" width="224" height="88" viewBox="0 0 224 88">
  <g id="Logo" transform="translate(-300 -972)">
    <g id="Rectangle_97" data-name="Rectangle 97" transform="translate(300 972)" fill="#fff" stroke="rgba(255,255,255,0.5)" stroke-width="1">
      <rect width="224" height="88" stroke="none"/>
      <rect x="0.5" y="0.5" width="223" height="87" fill="none"/>
    </g>
    <g id="_8" data-name="8">
      <g id="Page-1">
        <g id="_3" data-name="3">
          <g id="_8-2" data-name="8">
            <path id="paperz" d="M0,23.649V0H5.614A5.413,5.413,0,0,1,9.763,1.647,5.678,5.678,0,0,1,11.2,5.64V9.076a5.488,5.488,0,0,1-1.634,3.993,5.344,5.344,0,0,1-3.955,1.66H3.553v8.92ZM7.151,10.6a1.994,1.994,0,0,0,.59-1.446V5.7a2.051,2.051,0,0,0-.551-1.5A1.98,1.98,0,0,0,5.7,3.643H3.553V11.2H5.7a1.945,1.945,0,0,0,1.446-.6Zm6.007,13.05L17.164,0h4.914l3.955,23.649H22.3l-.843-5.433H17.734l-.869,5.433ZM19.6,5.42l-1.323,9.322h2.645Zm10.837,18.23V0h5.614A5.413,5.413,0,0,1,40.2,1.647,5.678,5.678,0,0,1,41.64,5.64V9.076a5.488,5.488,0,0,1-1.634,3.993,5.344,5.344,0,0,1-3.955,1.66H33.99v8.92ZM37.588,10.6a1.994,1.994,0,0,0,.59-1.446V5.7a2.051,2.051,0,0,0-.551-1.5,1.98,1.98,0,0,0-1.485-.564H33.99V11.2h2.152a1.945,1.945,0,0,0,1.446-.6Zm8.3,13.05V0H56.029V3.566H49.443v6.47h4.81v3.579h-4.81v6.47h6.587v3.566Zm14,0V0H65.5a5.4,5.4,0,0,1,4.369,1.647A5.949,5.949,0,0,1,71.106,5.64V9.076a5.5,5.5,0,0,1-1.906,4.24l2.645,10.334H67.994l-2.178-8.933q-.156.013-.324.013H63.443v8.92ZM67.041,10.6a1.994,1.994,0,0,0,.59-1.446V5.7A1.811,1.811,0,0,0,65.6,3.643H63.443V11.2H65.6a1.945,1.945,0,0,0,1.446-.6Zm9.054,13.05V20.11L82.668,3.566H76.095V0h10.4V3.566L79.933,20.11h6.561v3.54Z" transform="translate(389.363 997.575)" fill="#a4a4a4"/>
            <path id="LeadingPaperCompany" d="M0,6.088V.369H.629v5.2H3.2v.52Zm4.562-.134a1.868,1.868,0,0,1-.7-.746,2.287,2.287,0,0,1-.252-1.082,2.319,2.319,0,0,1,.247-1.082A1.849,1.849,0,0,1,4.549,2.3a1.887,1.887,0,0,1,1-.268,1.8,1.8,0,0,1,.956.26A1.838,1.838,0,0,1,7.178,3a2.068,2.068,0,0,1,.243,1q0,.159-.008.243H4.184a1.7,1.7,0,0,0,.394,1.031A1.216,1.216,0,0,0,5.56,5.7a1.668,1.668,0,0,0,.834-.189,1.45,1.45,0,0,0,.532-.524l.453.3a1.968,1.968,0,0,1-.73.683,2.206,2.206,0,0,1-1.073.247,1.924,1.924,0,0,1-1.015-.268Zm1.878-3.1a1.249,1.249,0,0,0-.889-.306,1.209,1.209,0,0,0-.893.348,1.592,1.592,0,0,0-.44.876H6.851A1.491,1.491,0,0,0,6.44,2.855Zm2.524,3.1a1.869,1.869,0,0,1-.7-.746,2.305,2.305,0,0,1-.252-1.09A2.293,2.293,0,0,1,8.264,3.04,1.856,1.856,0,0,1,8.951,2.3a1.887,1.887,0,0,1,1-.268,1.649,1.649,0,0,1,.784.189,1.705,1.705,0,0,1,.6.532V2.163h.57V6.088h-.57V5.509a1.749,1.749,0,0,1-.6.524,1.608,1.608,0,0,1-.771.189,1.908,1.908,0,0,1-1.006-.268ZM10.67,5.5a1.356,1.356,0,0,0,.491-.562,1.829,1.829,0,0,0,.176-.813,1.829,1.829,0,0,0-.176-.813,1.356,1.356,0,0,0-.491-.562,1.3,1.3,0,0,0-.717-.2,1.266,1.266,0,0,0-.7.2,1.373,1.373,0,0,0-.486.558,1.8,1.8,0,0,0-.176.809,1.849,1.849,0,0,0,.176.822,1.367,1.367,0,0,0,.486.562,1.266,1.266,0,0,0,.7.2,1.3,1.3,0,0,0,.717-.2Zm3,.453a1.869,1.869,0,0,1-.7-.746,2.305,2.305,0,0,1-.252-1.09,2.293,2.293,0,0,1,.247-1.078,1.856,1.856,0,0,1,.688-.742,1.887,1.887,0,0,1,1-.268,1.649,1.649,0,0,1,.784.189,1.705,1.705,0,0,1,.6.532V0h.57V6.088h-.57V5.509a1.749,1.749,0,0,1-.6.524,1.608,1.608,0,0,1-.771.189,1.908,1.908,0,0,1-1.006-.268ZM15.375,5.5a1.356,1.356,0,0,0,.491-.562,1.829,1.829,0,0,0,.176-.813,1.829,1.829,0,0,0-.176-.813,1.356,1.356,0,0,0-.491-.562,1.3,1.3,0,0,0-.717-.2,1.266,1.266,0,0,0-.7.2,1.373,1.373,0,0,0-.486.558,1.8,1.8,0,0,0-.176.809,1.849,1.849,0,0,0,.176.822,1.367,1.367,0,0,0,.486.562,1.266,1.266,0,0,0,.7.2,1.3,1.3,0,0,0,.717-.2ZM17.94,1.266a.452.452,0,0,1-.13-.327.428.428,0,0,1,.13-.314.461.461,0,0,1,.641,0,.431.431,0,0,1,.134.323.435.435,0,0,1-.134.319.45.45,0,0,1-.641,0Zm.038,4.822V2.163h.57V6.088Zm1.937,0V2.163h.57v.654a1.5,1.5,0,0,1,.532-.583,1.425,1.425,0,0,1,.767-.205,1.725,1.725,0,0,1,.759.168,1.316,1.316,0,0,1,.553.495,1.42,1.42,0,0,1,.205.771V6.088h-.57V3.715q0-1.166-1.04-1.166a1.035,1.035,0,0,0-.906.428,1.956,1.956,0,0,0-.3,1.149V6.088Zm4.8,1.677v-.52h1.627a1.057,1.057,0,0,0,.834-.369,1.374,1.374,0,0,0,.323-.939V5.509a1.749,1.749,0,0,1-.6.524,1.608,1.608,0,0,1-.771.189,1.908,1.908,0,0,1-1.006-.268,1.869,1.869,0,0,1-.7-.746,2.305,2.305,0,0,1-.252-1.09,2.293,2.293,0,0,1,.247-1.078A1.856,1.856,0,0,1,25.11,2.3a1.887,1.887,0,0,1,1-.268,1.649,1.649,0,0,1,.784.189,1.705,1.705,0,0,1,.6.532V2.163h.57V5.937a2,2,0,0,1-.218.943,1.614,1.614,0,0,1-.612.65,1.719,1.719,0,0,1-.9.235ZM26.829,5.5a1.356,1.356,0,0,0,.491-.562,1.829,1.829,0,0,0,.176-.813,1.829,1.829,0,0,0-.176-.813,1.356,1.356,0,0,0-.491-.562,1.3,1.3,0,0,0-.717-.2,1.266,1.266,0,0,0-.7.2,1.373,1.373,0,0,0-.486.558,1.8,1.8,0,0,0-.176.809,1.849,1.849,0,0,0,.176.822,1.367,1.367,0,0,0,.486.562,1.266,1.266,0,0,0,.7.2,1.3,1.3,0,0,0,.717-.2Zm4.306.587V.369h1.912a1.649,1.649,0,0,1,1.233.47,1.775,1.775,0,0,1,.461,1.3,1.719,1.719,0,0,1-.482,1.291,1.754,1.754,0,0,1-1.279.47H31.764V6.088Zm2.683-3.023a1.312,1.312,0,0,0,.293-.927,1.328,1.328,0,0,0-.293-.931,1.105,1.105,0,0,0-.855-.319h-1.2v2.49h1.2a1.113,1.113,0,0,0,.855-.314Zm2.365,2.889a1.869,1.869,0,0,1-.7-.746,2.305,2.305,0,0,1-.252-1.09,2.293,2.293,0,0,1,.247-1.078A1.856,1.856,0,0,1,36.17,2.3a1.887,1.887,0,0,1,1-.268,1.649,1.649,0,0,1,.784.189,1.705,1.705,0,0,1,.6.532V2.163h.57V6.088h-.57V5.509a1.749,1.749,0,0,1-.6.524,1.608,1.608,0,0,1-.771.189,1.908,1.908,0,0,1-1.006-.268ZM37.889,5.5a1.356,1.356,0,0,0,.491-.562,1.829,1.829,0,0,0,.176-.813,1.829,1.829,0,0,0-.176-.813,1.356,1.356,0,0,0-.491-.562,1.3,1.3,0,0,0-.717-.2,1.266,1.266,0,0,0-.7.2,1.373,1.373,0,0,0-.486.558,1.8,1.8,0,0,0-.176.809,1.849,1.849,0,0,0,.176.822,1.367,1.367,0,0,0,.486.562,1.266,1.266,0,0,0,.7.2,1.3,1.3,0,0,0,.717-.2Zm2.3,2.264v-5.6h.57v.579a1.749,1.749,0,0,1,.6-.524,1.608,1.608,0,0,1,.771-.189,1.908,1.908,0,0,1,1.006.268,1.869,1.869,0,0,1,.7.746,2.305,2.305,0,0,1,.252,1.09,2.293,2.293,0,0,1-.247,1.078,1.855,1.855,0,0,1-.688.742,1.887,1.887,0,0,1-1,.268,1.649,1.649,0,0,1-.784-.189,1.705,1.705,0,0,1-.6-.532V7.765ZM42.849,5.5a1.373,1.373,0,0,0,.486-.558,1.8,1.8,0,0,0,.176-.809,1.849,1.849,0,0,0-.176-.822,1.367,1.367,0,0,0-.486-.562,1.266,1.266,0,0,0-.7-.2,1.3,1.3,0,0,0-.717.2,1.356,1.356,0,0,0-.491.562,1.829,1.829,0,0,0-.176.813,1.829,1.829,0,0,0,.176.813,1.356,1.356,0,0,0,.491.562,1.3,1.3,0,0,0,.717.2,1.266,1.266,0,0,0,.7-.2Zm2.742.453a1.869,1.869,0,0,1-.7-.746,2.287,2.287,0,0,1-.252-1.082,2.319,2.319,0,0,1,.247-1.082,1.849,1.849,0,0,1,.688-.746,1.887,1.887,0,0,1,1-.268,1.8,1.8,0,0,1,.956.26A1.838,1.838,0,0,1,48.207,3a2.068,2.068,0,0,1,.243,1q0,.159-.008.243H45.214a1.7,1.7,0,0,0,.394,1.031,1.216,1.216,0,0,0,.981.428,1.668,1.668,0,0,0,.834-.189,1.45,1.45,0,0,0,.532-.524l.453.3a1.968,1.968,0,0,1-.73.683,2.206,2.206,0,0,1-1.073.247,1.924,1.924,0,0,1-1.015-.268Zm1.878-3.1a1.249,1.249,0,0,0-.889-.306,1.209,1.209,0,0,0-.893.348,1.592,1.592,0,0,0-.44.876H47.88a1.491,1.491,0,0,0-.411-.918Zm1.82,3.233V2.163h.57v.788a1.844,1.844,0,0,1,.574-.679,1.336,1.336,0,0,1,.784-.243,1.265,1.265,0,0,1,.386.059v.52a.886.886,0,0,0-.386-.084,1.209,1.209,0,0,0-.671.2,1.428,1.428,0,0,0-.5.583,2.012,2.012,0,0,0-.189.9V6.088Zm5.731-.222a2.258,2.258,0,0,1-.805-1.023,4.1,4.1,0,0,1-.281-1.6,4.306,4.306,0,0,1,.273-1.614A2.247,2.247,0,0,1,54.987.6a2.04,2.04,0,0,1,1.2-.356,2.271,2.271,0,0,1,1.22.314,2.139,2.139,0,0,1,.792.885l-.5.293a1.778,1.778,0,0,0-.629-.709,1.7,1.7,0,0,0-.88-.214,1.33,1.33,0,0,0-1.17.641A3.212,3.212,0,0,0,54.6,3.237a3.878,3.878,0,0,0,.193,1.291,1.812,1.812,0,0,0,.553.834,1.3,1.3,0,0,0,.839.289,1.451,1.451,0,0,0,.927-.264,2.472,2.472,0,0,0,.616-.826l.528.319a2.391,2.391,0,0,1-.8,1,2.039,2.039,0,0,1-1.187.344,2.161,2.161,0,0,1-1.245-.356Zm4.759.088a1.862,1.862,0,0,1-.7-.75,2.312,2.312,0,0,1-.252-1.086,2.293,2.293,0,0,1,.247-1.078,1.856,1.856,0,0,1,.688-.742,1.887,1.887,0,0,1,1-.268,1.908,1.908,0,0,1,1.006.268,1.869,1.869,0,0,1,.7.746,2.287,2.287,0,0,1,.252,1.082,2.319,2.319,0,0,1-.247,1.082,1.849,1.849,0,0,1-.688.746,1.887,1.887,0,0,1-1,.268,1.908,1.908,0,0,1-1.006-.268ZM61.486,5.5a1.357,1.357,0,0,0,.491-.562,1.829,1.829,0,0,0,.176-.813,1.829,1.829,0,0,0-.176-.813,1.356,1.356,0,0,0-.491-.562,1.3,1.3,0,0,0-.717-.2,1.266,1.266,0,0,0-.7.2,1.373,1.373,0,0,0-.486.558,1.8,1.8,0,0,0-.176.809,1.849,1.849,0,0,0,.176.822,1.367,1.367,0,0,0,.486.562,1.266,1.266,0,0,0,.7.2,1.3,1.3,0,0,0,.717-.2Zm2.042.587V2.163h.57v.612a1.463,1.463,0,0,1,.491-.553,1.315,1.315,0,0,1,1.43.038,1.2,1.2,0,0,1,.444.658,1.581,1.581,0,0,1,.5-.654,1.211,1.211,0,0,1,.738-.235,1.194,1.194,0,0,1,.906.382,1.471,1.471,0,0,1,.361,1.052V6.088H68.4V3.715a1.362,1.362,0,0,0-.235-.893.77.77,0,0,0-.612-.273.832.832,0,0,0-.717.356,1.857,1.857,0,0,0-.3.969V6.088h-.57V3.715a1.362,1.362,0,0,0-.235-.893.77.77,0,0,0-.612-.273.837.837,0,0,0-.767.428A2.228,2.228,0,0,0,64.1,4.126V6.088Zm6.465,1.677v-5.6h.57v.579a1.749,1.749,0,0,1,.6-.524,1.608,1.608,0,0,1,.771-.189,1.908,1.908,0,0,1,1.006.268,1.869,1.869,0,0,1,.7.746,2.305,2.305,0,0,1,.252,1.09,2.293,2.293,0,0,1-.247,1.078,1.855,1.855,0,0,1-.688.742,1.887,1.887,0,0,1-1,.268,1.649,1.649,0,0,1-.784-.189,1.705,1.705,0,0,1-.6-.532V7.765ZM72.651,5.5a1.373,1.373,0,0,0,.486-.558,1.8,1.8,0,0,0,.176-.809,1.849,1.849,0,0,0-.176-.822,1.367,1.367,0,0,0-.486-.562,1.266,1.266,0,0,0-.7-.2,1.3,1.3,0,0,0-.717.2,1.356,1.356,0,0,0-.491.562,1.829,1.829,0,0,0-.176.813,1.829,1.829,0,0,0,.176.813,1.356,1.356,0,0,0,.491.562,1.3,1.3,0,0,0,.717.2,1.266,1.266,0,0,0,.7-.2Zm2.742.453a1.869,1.869,0,0,1-.7-.746,2.305,2.305,0,0,1-.252-1.09,2.293,2.293,0,0,1,.247-1.078A1.856,1.856,0,0,1,75.38,2.3a1.887,1.887,0,0,1,1-.268,1.649,1.649,0,0,1,.784.189,1.705,1.705,0,0,1,.6.532V2.163h.57V6.088h-.57V5.509a1.749,1.749,0,0,1-.6.524,1.608,1.608,0,0,1-.771.189,1.908,1.908,0,0,1-1.006-.268ZM77.1,5.5a1.356,1.356,0,0,0,.491-.562,1.829,1.829,0,0,0,.176-.813,1.829,1.829,0,0,0-.176-.813A1.356,1.356,0,0,0,77.1,2.75a1.3,1.3,0,0,0-.717-.2,1.266,1.266,0,0,0-.7.2,1.373,1.373,0,0,0-.486.558,1.8,1.8,0,0,0-.176.809,1.849,1.849,0,0,0,.176.822,1.367,1.367,0,0,0,.486.562,1.266,1.266,0,0,0,.7.2,1.3,1.3,0,0,0,.717-.2Zm2.293.587V2.163h.57v.654a1.5,1.5,0,0,1,.532-.583,1.425,1.425,0,0,1,.767-.205,1.725,1.725,0,0,1,.759.168,1.316,1.316,0,0,1,.553.495,1.42,1.42,0,0,1,.205.771V6.088h-.57V3.715q0-1.166-1.04-1.166a1.035,1.035,0,0,0-.906.428,1.956,1.956,0,0,0-.3,1.149V6.088Zm5.048,1.677.621-1.6-1.61-4h.6l1.3,3.254L86.6,2.163h.537l-2.121,5.6Z" transform="translate(388.793 1027.249)" fill="#a4a4a4"/>
            <g id="icon">
              <path id="Combined-Shape" d="M20.032,0V27.205a27.175,27.175,0,0,1-7.547,3.135,27.753,27.753,0,0,1-6.783.873A20.588,20.588,0,0,1,0,30.459V3.255H0a17.972,17.972,0,0,0,1.99.452c.641.109,1.306.189,1.99.238q.84.063,1.717.063a27.781,27.781,0,0,0,6.783-.873A27.183,27.183,0,0,0,20.032,0ZM16.051,6.245q-.252.086-.507.168h.507Z" transform="translate(349 1003.056)" fill="#a4a4a4" fill-rule="evenodd"/>
              <path id="Combined-Shape-2" data-name="Combined-Shape" d="M22.361,0V30.047a30.513,30.513,0,0,1-8.425,3.462,31.293,31.293,0,0,1-7.572.964A23.212,23.212,0,0,1,0,33.642V3.595H0a20.246,20.246,0,0,0,2.222.5c.715.12,1.457.209,2.222.263q.937.069,1.917.069a31.325,31.325,0,0,0,7.572-.964A30.522,30.522,0,0,0,22.361,0Z" transform="translate(354.125 997)" fill="#a4a4a4" fill-rule="evenodd"/>
            </g>
          </g>
        </g>
      </g>
    </g>
  </g>
</svg>
